<?xml version="1.0" encoding="utf-8"?>
<!-- Generator: Adobe Illustrator 19.0.0, SVG Export Plug-In . SVG Version: 6.00 Build 0)  -->
<svg version="1.1" id="Layer_1" xmlns="http://www.w3.org/2000/svg" xmlns:xlink="http://www.w3.org/1999/xlink" x="0px" y="0px"
	 viewBox="0 0 1000 1000" style="enable-background:new 0 0 1000 1000;" xml:space="preserve">
<style type="text/css">
	.st0{opacity:0.15;}
	.st1{fill:#C0CDE9;}
	.st2{fill:url(#XMLID_335_);}
	.st3{fill:url(#XMLID_337_);}
	.st4{fill:url(#XMLID_340_);}
	.st5{fill:url(#XMLID_342_);}
	.st6{fill:#E9F2FA;}
	.st7{fill:url(#XMLID_345_);}
	.st8{fill:#DEDEDD;}
	.st9{fill:url(#XMLID_349_);}
	.st10{fill:#3A7FC2;}
	.st11{fill:#639ED5;}
	.st12{fill:#FFFFFF;}
	.st13{fill:url(#XMLID_350_);}
	.st14{fill:url(#XMLID_353_);}
	.st15{fill:url(#XMLID_354_);}
	.st16{fill:url(#XMLID_357_);}
	.st17{fill:url(#XMLID_362_);}
	.st18{fill:#C9C9C9;}
	.st19{fill:url(#XMLID_364_);}
	.st20{fill:url(#XMLID_368_);}
	.st21{fill:url(#XMLID_370_);}
	.st22{fill:#A1DCEA;}
	.st23{fill:#3EC2D1;}
	.st24{fill:#20A8AF;}
	.st25{fill:#F7911E;}
	.st26{fill:#D67727;}
	.st27{fill:#BB6428;}
	.st28{fill:#FDEB03;}
	.st29{fill:#D5C128;}
	.st30{fill:#938331;}
	.st31{fill:url(#XMLID_373_);}
	.st32{fill:#77B5CE;}
	.st33{fill:url(#XMLID_375_);}
	.st34{fill:#F9AC84;}
	.st35{fill:#080A08;}
	.st36{fill:#494A68;}
	.st37{fill:#F1AC85;}
	.st38{fill:#E18C66;}
	.st39{fill:#66A0D6;}
	.st40{fill:#DD936F;}
	.st41{fill:#3F4994;}
	.st42{fill:#178CBB;}
	.st43{fill:url(#XMLID_377_);}
	.st44{fill:url(#XMLID_380_);}
	.st45{fill:url(#XMLID_383_);}
	.st46{fill:#BACFEC;}
	.st47{fill:#9AB6DF;}
	.st48{fill:#E6F2FB;}
	.st49{fill:url(#XMLID_389_);}
	.st50{fill:url(#XMLID_391_);}
	.st51{fill:url(#XMLID_393_);}
	.st52{fill:url(#XMLID_396_);}
	.st53{fill:url(#XMLID_399_);}
	.st54{fill:url(#XMLID_402_);}
	.st55{fill:url(#XMLID_403_);}
	.st56{fill:url(#XMLID_409_);}
	.st57{fill:url(#XMLID_414_);}
	.st58{fill:url(#XMLID_415_);}
	.st59{fill:url(#XMLID_422_);}
	.st60{fill:url(#XMLID_424_);}
	.st61{fill:url(#XMLID_426_);}
	.st62{fill:url(#XMLID_427_);}
	.st63{fill:url(#XMLID_430_);}
	.st64{fill:url(#XMLID_431_);}
	.st65{fill:url(#XMLID_433_);}
	.st66{fill:url(#XMLID_434_);}
	.st67{fill:url(#XMLID_437_);}
	.st68{fill:url(#XMLID_438_);}
	.st69{fill:url(#XMLID_439_);}
	.st70{fill:url(#XMLID_456_);}
	.st71{fill:url(#XMLID_457_);}
	.st72{fill:url(#XMLID_460_);}
	.st73{fill:url(#XMLID_461_);}
	.st74{fill:url(#XMLID_462_);}
	.st75{fill:#1C7DC1;}
	.st76{fill:#30205E;}
	.st77{fill:url(#XMLID_463_);}
	.st78{fill:#9E97CA;}
	.st79{fill:#FEFDED;}
	.st80{fill:#884C9E;}
	.st81{fill:#010101;}
	.st82{fill:#FBC4B7;}
	.st83{fill:#293777;}
	.st84{fill:#62CDF6;}
	.st85{fill:#525AA7;}
	.st86{fill:#E38925;}
	.st87{fill:#1C1C38;}
	.st88{fill:#FDFEFF;}
	.st89{fill:#447ABD;}
	.st90{fill:#BBBEB5;}
	.st91{fill:#EBEEF1;}
	.st92{fill:#D23B86;}
	.st93{fill:#47476D;}
	.st94{fill:#2D2D4F;}
	.st95{fill:#EE559C;}
	.st96{fill:#E6A89C;}
</style>
<g id="OBJECTS">
	<g id="XMLID_1_" class="st0">
		<path id="XMLID_831_" class="st1" d="M915.1,875.6l-148.4,83.1c-6.5,3.8-18.1,3.4-25.7-1.1l-49.6-29.5c-7.6-4.5-8.5-11.2-1.8-15
			l147.9-84.9c6.5-3.8,18.1-3.4,25.7,1.1l50.1,31.1C921,865.1,921.9,871.8,915.1,875.6z"/>
		<path id="XMLID_830_" class="st1" d="M853.5,802.7l-148.6,83.4c-6.5,3.8-18.1,3.4-25.7-1.1l-49.4-29.5c-7.6-4.5-8.5-11.2-1.8-15
			l147.9-84.9c6.5-3.8,18.1-3.4,25.7,1.1l50.1,31.1C859.1,792.2,860,798.9,853.5,802.7z"/>
		<path id="XMLID_829_" class="st1" d="M889,680.1L440.7,930.1c-19.9,11.4-54.7,10.1-77.8-3.1L101.7,776.1
			c-23-13.2-25.5-33.5-5.6-44.9l448.3-250.1c19.9-11.4,54.7-10.1,77.8,3.1l261.2,150.8C906.2,648.3,908.7,668.7,889,680.1z"/>
	</g>
	<g id="XMLID_2_">
		<g id="XMLID_3_">
			
				<linearGradient id="XMLID_335_" gradientUnits="userSpaceOnUse" x1="152.9822" y1="889.0555" x2="48.0952" y2="665.059" gradientTransform="matrix(1 0 0 -1 0 1002)">
				<stop  offset="0" style="stop-color:#E6F2FB"/>
				<stop  offset="0.3075" style="stop-color:#D8E5F5;stop-opacity:0.6923"/>
				<stop  offset="0.9993" style="stop-color:#C0CDE9;stop-opacity:0"/>
			</linearGradient>
			<path id="XMLID_4_" class="st2" d="M24.2,344.2c-2.5,0-5.4-2-5.4-5.4v-112c0-1.8,1.1-3.6,2.7-4.5l134.7-77.8
				c0.9-0.4,1.8-0.7,2.7-0.7c2.5,0,5.4,2,5.4,5.4v112c0,1.8-1.1,3.6-2.7,4.5l-135,77.8C26,344,25.1,344.2,24.2,344.2z"/>
			
				<linearGradient id="XMLID_337_" gradientUnits="userSpaceOnUse" x1="223.9977" y1="890.8407" x2="303.677" y2="567.2663" gradientTransform="matrix(1 0 0 -1 0 1002)">
				<stop  offset="0" style="stop-color:#E6F2FB"/>
				<stop  offset="0.3075" style="stop-color:#D8E5F5;stop-opacity:0.6923"/>
				<stop  offset="0.9993" style="stop-color:#C0CDE9;stop-opacity:0"/>
			</linearGradient>
			<path id="XMLID_5_" class="st3" d="M124.8,506.9c-5.4,0-11.4-4.2-11.4-11.4V255.9c0-4,2.2-7.8,5.6-9.8L407,79.8
				c1.8-1.1,3.6-1.6,5.6-1.6c5.4,0,11.4,4.2,11.4,11.4v239.8c0,4-2.2,7.8-5.6,9.8l-288,166C128.6,506.4,126.8,506.9,124.8,506.9z"/>
			
				<linearGradient id="XMLID_340_" gradientUnits="userSpaceOnUse" x1="414.1649" y1="1049.1892" x2="410.6094" y2="866.0808" gradientTransform="matrix(1 0 0 -1 0 1002)">
				<stop  offset="0" style="stop-color:#E6F2FB"/>
				<stop  offset="0.3075" style="stop-color:#D8E5F5;stop-opacity:0.6923"/>
				<stop  offset="0.9993" style="stop-color:#C0CDE9;stop-opacity:0"/>
			</linearGradient>
			<path id="XMLID_6_" class="st4" d="M351.8,186.7c-2.2,0-4.7-1.8-4.7-4.7V82.5c0-1.6,0.9-3.1,2.2-4L468.7,9.7
				c0.7-0.4,1.6-0.7,2.2-0.7c2.2,0,4.7,1.8,4.7,4.7v99.2c0,1.6-0.9,3.1-2.2,4L354,186C353.4,186.4,352.5,186.7,351.8,186.7z"/>
			
				<linearGradient id="XMLID_342_" gradientUnits="userSpaceOnUse" x1="155.1452" y1="673.6689" x2="123.1458" y2="437.2287" gradientTransform="matrix(1 0 0 -1 0 1002)">
				<stop  offset="0" style="stop-color:#E6F2FB"/>
				<stop  offset="0.3075" style="stop-color:#D8E5F5;stop-opacity:0.6923"/>
				<stop  offset="0.9993" style="stop-color:#C0CDE9;stop-opacity:0"/>
			</linearGradient>
			<path id="XMLID_7_" class="st5" d="M73.4,581.3c-2.2,0-4.7-1.8-4.7-4.7v-99.2c0-1.6,0.9-3.1,2.2-4l119.3-68.8
				c0.7-0.4,1.6-0.7,2.2-0.7c2.2,0,4.7,1.8,4.7,4.7v99.2c0,1.6-0.9,3.1-2.2,4L75.6,580.6C74.9,581.1,74,581.3,73.4,581.3z"/>
		</g>
		<g id="XMLID_8_">
			<g id="XMLID_9_">
				<path id="XMLID_822_" class="st1" d="M405,202.1c0,4.7-3.4,10.7-7.6,13c-4.2,2.5-7.6,0.4-7.6-4.2c0-4.7,3.4-10.7,7.6-13
					C401.6,195.6,405,197.4,405,202.1z"/>
				<path id="XMLID_821_" class="st1" d="M431.8,186.7c0,4.7-3.4,10.7-7.6,13c-4.2,2.5-7.6,0.4-7.6-4.2c0-4.7,3.4-10.7,7.6-13
					C428.4,179.9,431.8,182,431.8,186.7z"/>
				<path id="XMLID_820_" class="st1" d="M458.6,171c0,4.7-3.4,10.7-7.6,13c-4.2,2.5-7.6,0.4-7.6-4.2c0-4.7,3.4-10.7,7.6-13
					C455.3,164.5,458.6,166.3,458.6,171z"/>
			</g>
			<g id="XMLID_10_">
				<path id="XMLID_11_" class="st1" d="M208.8,330.8c-5.6,6.3-10.5,10.1-17.2,13.9c-15.6,9.2-29.5,4-29.5-17.4
					c0-22.3,14.1-49.6,35.3-62.1c16.5-9.6,28.6-3.4,28.6,15c0,15.9-7.8,30.4-17.9,36.4c-4.5,2.5-7.6,1.8-8-3.8h-0.2
					c-2.9,7.2-7.2,12.5-12.3,15.4c-6.3,3.6-10.5,0.9-10.5-8c0-13.4,8.5-30.4,22.1-38.2c4.2-2.5,8.9-4,11.2-3.8l-2.9,21.9
					c-0.9,6.9-0.2,9.6,2.5,8c4-2.2,9.2-11.2,9.2-23.7c0-14.3-8-20.6-22.6-12.1c-14.5,8.3-27,28.8-27,49.6
					c0,18.3,10.1,22.8,24.1,14.5c4.9-2.7,9.8-6.9,13.6-11.4L208.8,330.8z M200.3,290.6c-0.7,0.2-1.8,0.4-2.9,1.3
					c-6.3,3.6-11.2,13.6-11.2,21.9c0,4.2,1.6,5.8,4.7,4c3.6-2,7.2-9.4,8-16.1L200.3,290.6z"/>
			</g>
			<g id="XMLID_12_">
				<path id="XMLID_814_" class="st1" d="M249.7,193.4l33.1,9.2c1.1,0.2,2.7-0.7,3.6-2l33.1-47.2L249.7,193.4z"/>
				<path id="XMLID_813_" class="st1" d="M273.1,203.2l-23,38c-0.4-0.4-0.7-1.1-0.7-2v-42.5L273.1,203.2z"/>
				<path id="XMLID_812_" class="st1" d="M293.9,192.9l23.2,11.6c-0.7,0.7-1.3,1.3-2.2,1.8l-60.3,34.9c-0.7,0.4-1.3,0.7-2,0.7
					l23-38.2l9.2,2.5L293.9,192.9z"/>
				<path id="XMLID_811_" class="st1" d="M319.6,156.3v42.5c0,0.9-0.2,1.8-0.7,2.7l-22.8-11.6L319.6,156.3z"/>
			</g>
		</g>
		<g id="XMLID_13_">
			<path id="XMLID_14_" class="st1" d="M550.9,213.5c-0.2,0-0.7-0.2-0.7-0.7V48.6L326.8,177.9c-0.2,0.2-0.7,0-0.7-0.2
				c-0.2-0.2,0-0.7,0.2-0.7L551.6,46.8V213C551.6,213.2,551.1,213.5,550.9,213.5z"/>
			<g id="XMLID_15_">
				<g id="XMLID_16_">
					<path id="XMLID_17_" class="st1" d="M565.9,214.1c-0.7,0-1.1-0.4-1.1-1.1v-0.2c0-0.7,0.4-1.1,1.1-1.1c0.7,0,1.1,0.4,1.1,1.1
						C567,213.5,566.5,214.1,565.9,214.1z"/>
					<path id="XMLID_18_" class="st1" d="M565.9,205.4c-0.7,0-1.1-0.4-1.1-1.1v-0.2c0-0.7,0.4-1.1,1.1-1.1c0.7,0,1.1,0.4,1.1,1.1
						C567,205,566.5,205.4,565.9,205.4z M565.9,196.9c-0.7,0-1.1-0.4-1.1-1.1v-0.2c0-0.7,0.4-1.1,1.1-1.1c0.7,0,1.1,0.4,1.1,1.1
						S566.5,196.9,565.9,196.9z M565.9,188.2c-0.7,0-1.1-0.4-1.1-1.1v-0.2c0-0.7,0.4-1.1,1.1-1.1c0.7,0,1.1,0.4,1.1,1.1
						C567,187.5,566.5,188.2,565.9,188.2z M565.9,179.5c-0.7,0-1.1-0.4-1.1-1.1v-0.2c0-0.7,0.4-1.1,1.1-1.1c0.7,0,1.1,0.4,1.1,1.1
						C567,178.8,566.5,179.5,565.9,179.5z M565.9,170.8c-0.7,0-1.1-0.4-1.1-1.1v-0.2c0-0.7,0.4-1.1,1.1-1.1c0.7,0,1.1,0.4,1.1,1.1
						C567,170.3,566.5,170.8,565.9,170.8z M565.9,162.3c-0.7,0-1.1-0.4-1.1-1.1V161c0-0.7,0.4-1.1,1.1-1.1c0.7,0,1.1,0.4,1.1,1.1
						S566.5,162.3,565.9,162.3z M565.9,153.6c-0.7,0-1.1-0.4-1.1-1.1v-0.2c0-0.7,0.4-1.1,1.1-1.1c0.7,0,1.1,0.4,1.1,1.1
						S566.5,153.6,565.9,153.6z"/>
					<path id="XMLID_26_" class="st1" d="M565.9,144.9c-0.4,0-0.7-0.2-0.9-0.4c0,0,0,0,0-0.2c-0.2-0.4-0.2-1.1,0.4-1.6
						c0.4-0.2,0.9-0.2,1.1,0c0.4,0.2,0.7,0.4,0.7,0.9C567,144.4,566.5,144.9,565.9,144.9z"/>
					<path id="XMLID_27_" class="st1" d="M246.1,323.4c-0.4,0-0.7-0.2-0.9-0.7c-0.2-0.4,0-1.1,0.4-1.6h0.2c0.4-0.2,1.1,0,1.6,0.4
						c0.2,0.4,0,1.1-0.4,1.6h-0.2C246.5,323.4,246.3,323.4,246.1,323.4z M254.1,318.9c-0.4,0-0.7-0.2-0.9-0.7
						c-0.2-0.4,0-1.1,0.4-1.6h0.2c0.4-0.2,1.1,0,1.6,0.4c0.2,0.4,0,1.1-0.4,1.6h-0.2C254.6,318.9,254.4,318.9,254.1,318.9z
						 M262.2,314.5c-0.4,0-0.7-0.2-0.9-0.7c-0.2-0.4,0-1.1,0.4-1.6c0.4-0.2,1.3-0.2,1.6,0.4c0.2,0.4,0.2,1.1-0.2,1.6h-0.2
						C262.6,314.5,262.4,314.5,262.2,314.5z M270.2,310c-0.4,0-0.7-0.2-0.9-0.7s0-1.1,0.4-1.6h0.2c0.4-0.2,1.1,0,1.6,0.4
						c0.2,0.4,0,1.1-0.4,1.6h-0.2C270.5,310,270.2,310,270.2,310z M278.1,305.5c-0.4,0-0.7-0.2-0.9-0.7c-0.2-0.4,0-1.1,0.4-1.6h0.2
						c0.4-0.2,1.1,0,1.6,0.4c0.2,0.4,0,1.1-0.4,1.6h-0.2C278.5,305.5,278.3,305.5,278.1,305.5z M286.1,301.1c-0.4,0-0.7-0.2-0.9-0.7
						c-0.2-0.4,0-1.1,0.4-1.6c0.4-0.2,1.3-0.2,1.6,0.4c0.2,0.4,0.2,1.1-0.2,1.6h-0.2C286.5,301.1,286.3,301.1,286.1,301.1z
						 M294.1,296.6c-0.4,0-0.7-0.2-0.9-0.7c-0.2-0.4,0-1.1,0.4-1.6c0.4-0.2,1.3-0.2,1.6,0.4c0.2,0.4,0.2,1.1-0.2,1.6h-0.2
						C294.6,296.6,294.4,296.6,294.1,296.6z M302.2,292.1c-0.4,0-0.7-0.2-0.9-0.7c-0.2-0.4,0-1.1,0.4-1.6h0.2c0.4-0.2,1.1,0,1.6,0.4
						c0.2,0.4,0,1.1-0.4,1.6h-0.2C302.4,292.1,302.2,292.1,302.2,292.1z M310,287.7c-0.4,0-0.7-0.2-0.9-0.7c-0.2-0.4,0-1.1,0.4-1.6
						h0.2c0.4-0.2,1.1,0,1.6,0.4c0.2,0.4,0,1.1-0.4,1.6h-0.2C310.5,287.7,310.2,287.7,310,287.7z M318.1,283.2
						c-0.4,0-0.7-0.2-0.9-0.7c-0.2-0.4,0-1.1,0.4-1.6c0.4-0.2,1.3-0.2,1.6,0.4c0.2,0.4,0.2,1.1-0.4,1.6h-0.2
						C318.5,283.2,318.3,283.2,318.1,283.2z M326.1,278.7c-0.4,0-0.7-0.2-0.9-0.7c-0.2-0.4,0-1.1,0.4-1.6c0.4-0.2,1.3-0.2,1.6,0.4
						c0.2,0.4,0.2,1.1-0.4,1.6h-0.2C326.5,278.7,326.3,278.7,326.1,278.7z M334.1,274.2c-0.4,0-0.7-0.2-0.9-0.7
						c-0.2-0.4,0-1.1,0.4-1.6c0.4-0.2,1.3-0.2,1.6,0.4c0.2,0.4,0.2,1.1-0.4,1.6h-0.2C334.4,274.2,334.1,274.2,334.1,274.2z
						 M342,269.8c-0.4,0-0.7-0.2-0.9-0.7c-0.2-0.4,0-1.1,0.4-1.6c0.4-0.2,1.3-0.2,1.6,0.4c0.2,0.4,0.2,1.1-0.4,1.6h-0.2
						C342.4,269.8,342.2,269.8,342,269.8z M350,265.3c-0.4,0-0.7-0.2-0.9-0.7c-0.2-0.4,0-1.1,0.4-1.6c0.4-0.2,1.3-0.2,1.6,0.4
						c0.2,0.4,0.2,1.1-0.4,1.6h-0.2C350.5,265.3,350.2,265.3,350,265.3z M358.1,260.8c-0.4,0-0.7-0.2-0.9-0.7
						c-0.2-0.4,0-1.1,0.4-1.6c0.4-0.2,1.3-0.2,1.6,0.4c0.2,0.4,0.2,1.1-0.4,1.6h-0.2C358.5,260.8,358.3,260.8,358.1,260.8z
						 M366.1,256.4c-0.4,0-0.7-0.2-0.9-0.7c-0.2-0.4,0-1.1,0.4-1.6h0.2c0.4-0.2,1.1,0,1.6,0.4c0.2,0.4,0,1.1-0.4,1.6h-0.2
						C366.3,256.4,366.3,256.4,366.1,256.4z M373.9,251.9c-0.4,0-0.7-0.2-0.9-0.7c-0.2-0.4,0-1.1,0.4-1.6c0.4-0.2,1.3-0.2,1.6,0.4
						c0.2,0.4,0.2,1.1-0.2,1.6h-0.2C374.4,251.9,374.1,251.9,373.9,251.9z M382,247.4c-0.4,0-0.7-0.2-0.9-0.7
						c-0.2-0.4,0-1.1,0.4-1.6h0.2c0.4-0.2,1.1,0,1.6,0.4c0.2,0.4,0,1.1-0.4,1.6h-0.2C382.4,247.4,382.2,247.4,382,247.4z M390,243
						c-0.4,0-0.7-0.2-0.9-0.7c-0.2-0.4,0-1.1,0.4-1.6h0.2c0.4-0.2,1.1,0,1.6,0.4c0.2,0.4,0,1.1-0.4,1.6h-0.2
						C390.5,243,390.2,243,390,243z M398.1,238.5c-0.4,0-0.7-0.2-0.9-0.7s0-1.1,0.4-1.6c0.4-0.2,1.3-0.2,1.6,0.4
						c0.2,0.4,0.2,1.1-0.2,1.6h-0.2C398.3,238.5,398.3,238.5,398.1,238.5z M405.9,234c-0.4,0-0.7-0.2-0.9-0.7
						c-0.2-0.4,0-1.1,0.4-1.6c0.4-0.2,1.3-0.2,1.6,0.4c0.2,0.4,0.2,1.1-0.2,1.6h-0.2C406.3,234,406.1,234,405.9,234z M413.9,229.8
						c-0.4,0-0.7-0.2-0.9-0.7c-0.2-0.4,0-1.1,0.4-1.6h0.2c0.4-0.2,1.1,0,1.6,0.4c0.2,0.4,0,1.1-0.4,1.6h-0.2
						C414.4,229.6,414.1,229.8,413.9,229.8z M422,225.3c-0.4,0-0.7-0.2-0.9-0.7c-0.2-0.4,0-1.1,0.4-1.6h0.2c0.4-0.2,1.1,0,1.6,0.4
						c0.2,0.4,0,1.1-0.4,1.6h-0.2C422.4,225.1,422.2,225.3,422,225.3z M430,220.8c-0.4,0-0.7-0.2-0.9-0.7c-0.2-0.4,0-1.1,0.4-1.6
						c0.4-0.2,1.3-0.2,1.6,0.4c0.2,0.4,0.2,1.1-0.2,1.6h-0.2C430.2,220.6,430.2,220.8,430,220.8z M438.1,216.4
						c-0.4,0-0.7-0.2-0.9-0.7c-0.2-0.4,0-1.1,0.4-1.6c0.4-0.2,1.3-0.2,1.6,0.4c0.2,0.4,0.2,1.1-0.2,1.6h-0.2
						C438.3,216.1,438.1,216.4,438.1,216.4z M445.9,211.9c-0.4,0-0.7-0.2-0.9-0.7c-0.2-0.4,0-1.1,0.4-1.6h0.2c0.4-0.2,1.1,0,1.6,0.4
						c0.2,0.4,0,1.1-0.4,1.6h-0.2C446.3,211.7,446.1,211.9,445.9,211.9z M453.9,207.4c-0.4,0-0.7-0.2-0.9-0.7
						c-0.2-0.4,0-1.1,0.4-1.6h0.2c0.4-0.2,1.1,0,1.6,0.4c0.2,0.4,0,1.1-0.4,1.6h-0.2C454.4,207.4,454.1,207.4,453.9,207.4z M462,203
						c-0.4,0-0.7-0.2-0.9-0.7c-0.2-0.4,0-1.1,0.4-1.6c0.4-0.2,1.3-0.2,1.6,0.4c0.2,0.4,0.2,1.1-0.2,1.6h-0.2
						C462.2,203,462.2,203,462,203z M470,198.5c-0.4,0-0.7-0.2-0.9-0.7c-0.2-0.4,0-1.1,0.4-1.6c0.4-0.2,1.3-0.2,1.6,0.4
						c0.2,0.4,0.2,1.1-0.2,1.6h-0.2C470.2,198.5,470,198.5,470,198.5z M477.8,194c-0.4,0-0.7-0.2-0.9-0.7c-0.2-0.4,0-1.1,0.4-1.6
						c0.4-0.2,1.3-0.2,1.6,0.4c0.2,0.4,0.2,1.1-0.4,1.6h-0.2C478.3,194,478.1,194,477.8,194z M485.9,189.6c-0.4,0-0.7-0.2-0.9-0.7
						c-0.2-0.4,0-1.1,0.4-1.6h0.2c0.4-0.2,1.1,0,1.6,0.4c0.2,0.4,0,1.1-0.4,1.6h-0.2C486.3,189.6,486.1,189.6,485.9,189.6z
						 M493.9,185.1c-0.4,0-0.7-0.2-0.9-0.7c-0.2-0.4,0-1.1,0.4-1.6c0.4-0.2,1.3-0.2,1.6,0.4c0.2,0.4,0.2,1.1-0.4,1.6h-0.2
						C494.1,185.1,494.1,185.1,493.9,185.1z M502,180.6c-0.4,0-0.7-0.2-0.9-0.7c-0.2-0.4,0-1.1,0.4-1.6c0.4-0.2,1.3-0.2,1.6,0.4
						c0.2,0.4,0.2,1.1-0.4,1.6h-0.2C502.2,180.6,502,180.6,502,180.6z M509.8,176.1c-0.4,0-0.7-0.2-0.9-0.7c-0.2-0.4,0-1.1,0.4-1.6
						c0.4-0.2,1.3-0.2,1.6,0.4c0.2,0.4,0.2,1.1-0.4,1.6h-0.2C510.2,176.1,510,176.1,509.8,176.1z M517.8,171.7
						c-0.4,0-0.7-0.2-0.9-0.7s0-1.1,0.4-1.6c0.4-0.2,1.3-0.2,1.6,0.4c0.2,0.4,0.2,1.1-0.4,1.6h-0.2
						C518.3,171.7,518.1,171.7,517.8,171.7z M525.9,167.2c-0.4,0-0.7-0.2-0.9-0.7c-0.2-0.4,0-1.1,0.4-1.6h0.2c0.4-0.2,1.1,0,1.6,0.4
						c0.2,0.4,0,1.1-0.4,1.6h-0.2C526.1,167.2,526.1,167.2,525.9,167.2z M533.9,162.7c-0.4,0-0.7-0.2-0.9-0.7
						c-0.2-0.4,0-1.1,0.4-1.6c0.4-0.2,1.3-0.2,1.6,0.4c0.2,0.4,0.2,1.1-0.2,1.6h-0.2C534.1,162.7,533.9,162.7,533.9,162.7z
						 M541.7,158.3c-0.4,0-0.7-0.2-0.9-0.7s0-1.1,0.4-1.6c0.4-0.2,1.3-0.2,1.6,0.4c0.2,0.4,0.2,1.1-0.2,1.6h-0.2
						C542.2,158.3,542,158.3,541.7,158.3z M549.8,153.8c-0.4,0-0.7-0.2-0.9-0.7c-0.2-0.4,0-1.1,0.4-1.6h0.2c0.4-0.2,1.1,0,1.6,0.4
						c0.2,0.4,0,1.1-0.4,1.6h-0.2C550.2,153.8,550,153.8,549.8,153.8z M557.8,149.3c-0.4,0-0.7-0.2-0.9-0.7c-0.2-0.4,0-1.1,0.4-1.6
						c0.4-0.2,1.3-0.2,1.6,0.4c0.2,0.4,0.2,1.1-0.2,1.6h-0.2C558.1,149.3,558.1,149.3,557.8,149.3z"/>
					<path id="XMLID_68_" class="st1" d="M238.3,327.9c-0.7,0-1.1-0.4-1.1-1.1c0-0.4,0.2-0.9,0.7-1.1s1.3-0.2,1.6,0.4
						c0.2,0.4,0.2,1.1-0.2,1.3C238.9,327.7,238.5,327.9,238.3,327.9z"/>
					<path id="XMLID_69_" class="st1" d="M238.3,394.2c-0.7,0-1.1-0.4-1.1-1.1v-0.2c0-0.7,0.4-1.1,1.1-1.1s1.1,0.4,1.1,1.1v0.2
						C239.4,393.8,238.9,394.2,238.3,394.2z M238.3,384.9c-0.7,0-1.1-0.4-1.1-1.1v-0.2c0-0.7,0.4-1.1,1.1-1.1s1.1,0.4,1.1,1.1v0.2
						C239.4,384.4,238.9,384.9,238.3,384.9z M238.3,375.3c-0.7,0-1.1-0.4-1.1-1.1v-0.2c0-0.7,0.4-1.1,1.1-1.1s1.1,0.4,1.1,1.1v0.2
						C239.4,374.8,238.9,375.3,238.3,375.3z M238.3,365.9c-0.7,0-1.1-0.4-1.1-1.1v-0.2c0-0.7,0.4-1.1,1.1-1.1s1.1,0.4,1.1,1.1v0.2
						C239.4,365.4,238.9,365.9,238.3,365.9z M238.3,356.3c-0.7,0-1.1-0.4-1.1-1.1v-0.2c0-0.7,0.4-1.1,1.1-1.1s1.1,0.4,1.1,1.1v0.2
						C239.4,355.8,238.9,356.3,238.3,356.3z M238.3,346.9c-0.7,0-1.1-0.4-1.1-1.1v-0.2c0-0.7,0.4-1.1,1.1-1.1s1.1,0.4,1.1,1.1v0.2
						C239.4,346.4,238.9,346.9,238.3,346.9z M238.3,337.3c-0.7,0-1.1-0.4-1.1-1.1v-0.2c0-0.7,0.4-1.1,1.1-1.1s1.1,0.4,1.1,1.1v0.2
						C239.4,336.8,238.9,337.3,238.3,337.3z"/>
					<path id="XMLID_77_" class="st1" d="M238.3,403.6c-0.7,0-1.1-0.4-1.1-1.1c0-0.7,0.4-1.1,1.1-1.1s1.1,0.4,1.1,1.1l0,0
						C239.4,403.2,238.9,403.6,238.3,403.6z"/>
				</g>
				<path id="XMLID_78_" class="st1" d="M98.4,447.9c-0.2,0-0.7-0.2-0.7-0.7v-89.4l0.2-0.2l52.5-27.7c0.2-0.2,0.7,0,0.7,0.2
					c0.2,0.2,0,0.7-0.2,0.7l-52.1,27.7v88.7C98.8,447.7,98.6,447.9,98.4,447.9z"/>
				<path id="XMLID_79_" class="st1" d="M135.9,591.6c-0.7,0-1.1-0.4-1.1-1.1v-0.2c0-0.7,0.4-1.1,1.1-1.1s1.1,0.4,1.1,1.1
					S136.6,591.6,135.9,591.6z M135.9,582.4c-0.7,0-1.1-0.4-1.1-1.1v-0.2c0-0.7,0.4-1.1,1.1-1.1s1.1,0.4,1.1,1.1v0.2
					C137.1,582,136.6,582.4,135.9,582.4z M135.9,573.2c-0.7,0-1.1-0.4-1.1-1.1v-0.2c0-0.7,0.4-1.1,1.1-1.1s1.1,0.4,1.1,1.1
					S136.6,573.2,135.9,573.2z M135.9,564.1c-0.7,0-1.1-0.4-1.1-1.1v-0.2c0-0.7,0.4-1.1,1.1-1.1s1.1,0.4,1.1,1.1v0.2
					C137.1,563.6,136.6,564.1,135.9,564.1z M135.9,554.9c-0.7,0-1.1-0.4-1.1-1.1v-0.2c0-0.7,0.4-1.1,1.1-1.1s1.1,0.4,1.1,1.1
					C137.1,554.2,136.6,554.9,135.9,554.9z M135.9,545.8c-0.7,0-1.1-0.4-1.1-1.1v-0.2c0-0.7,0.4-1.1,1.1-1.1s1.1,0.4,1.1,1.1
					C137.1,545.1,136.6,545.8,135.9,545.8z M135.9,536.6c-0.7,0-1.1-0.4-1.1-1.1v-0.2c0-0.7,0.4-1.1,1.1-1.1s1.1,0.4,1.1,1.1v0.2
					C137.1,536.1,136.6,536.6,135.9,536.6z M135.9,527.4c-0.7,0-1.1-0.4-1.1-1.1v-0.2c0-0.7,0.4-1.1,1.1-1.1s1.1,0.4,1.1,1.1
					C137.1,526.8,136.6,527.4,135.9,527.4z M135.9,518.3c-0.7,0-1.1-0.4-1.1-1.1v-0.2c0-0.7,0.4-1.1,1.1-1.1s1.1,0.4,1.1,1.1v0.2
					C137.1,517.8,136.6,518.3,135.9,518.3z M135.9,509.1c-0.7,0-1.1-0.4-1.1-1.1v-0.2c0-0.7,0.4-1.1,1.1-1.1s1.1,0.4,1.1,1.1
					C137.1,508.4,136.6,509.1,135.9,509.1z M135.9,499.9c-0.7,0-1.1-0.4-1.1-1.1v-0.2c0-0.7,0.4-1.1,1.1-1.1s1.1,0.4,1.1,1.1v0.2
					C137.1,499.5,136.6,499.9,135.9,499.9z M135.9,490.8c-0.7,0-1.1-0.4-1.1-1.1v-0.2c0-0.7,0.4-1.1,1.1-1.1s1.1,0.4,1.1,1.1v0.2
					C137.1,490.3,136.6,490.8,135.9,490.8z M135.9,481.6c-0.7,0-1.1-0.4-1.1-1.1v-0.2c0-0.7,0.4-1.1,1.1-1.1s1.1,0.4,1.1,1.1
					C137.1,481,136.6,481.6,135.9,481.6z M135.9,472.5c-0.7,0-1.1-0.4-1.1-1.1v-0.2c0-0.7,0.4-1.1,1.1-1.1s1.1,0.4,1.1,1.1v0.2
					C137.1,472,136.6,472.5,135.9,472.5z M135.9,463.3c-0.7,0-1.1-0.4-1.1-1.1V462c0-0.7,0.4-1.1,1.1-1.1s1.1,0.4,1.1,1.1v0.2
					C137.1,462.9,136.6,463.3,135.9,463.3z M135.9,454.1c-0.7,0-1.1-0.4-1.1-1.1v-0.2c0-0.7,0.4-1.1,1.1-1.1s1.1,0.4,1.1,1.1v0.2
					C137.1,453.7,136.6,454.1,135.9,454.1z M135.9,445c-0.7,0-1.1-0.4-1.1-1.1v-0.2c0-0.7,0.4-1.1,1.1-1.1s1.1,0.4,1.1,1.1v0.2
					C137.1,444.5,136.6,445,135.9,445z M135.9,435.8c-0.7,0-1.1-0.4-1.1-1.1v-0.2c0-0.7,0.4-1.1,1.1-1.1s1.1,0.4,1.1,1.1
					C137.1,435.1,136.6,435.8,135.9,435.8z M135.9,426.7c-0.7,0-1.1-0.4-1.1-1.1v-0.2c0-0.7,0.4-1.1,1.1-1.1s1.1,0.4,1.1,1.1v0.2
					C137.1,426.2,136.6,426.7,135.9,426.7z M135.9,417.5c-0.7,0-1.1-0.4-1.1-1.1v-0.2c0-0.7,0.4-1.1,1.1-1.1s1.1,0.4,1.1,1.1v0.2
					C137.1,417,136.6,417.5,135.9,417.5z M135.9,408.3c-0.7,0-1.1-0.4-1.1-1.1V407c0-0.7,0.4-1.1,1.1-1.1s1.1,0.4,1.1,1.1v0.2
					C137.1,407.9,136.6,408.3,135.9,408.3z M135.9,399.2c-0.7,0-1.1-0.4-1.1-1.1v-0.2c0-0.7,0.4-1.1,1.1-1.1s1.1,0.4,1.1,1.1v0.2
					C137.1,398.7,136.6,399.2,135.9,399.2z M135.9,390c-0.7,0-1.1-0.4-1.1-1.1v-0.2c0-0.7,0.4-1.1,1.1-1.1s1.1,0.4,1.1,1.1
					C137.1,389.3,136.6,390,135.9,390z M135.9,380.8c-0.7,0-1.1-0.4-1.1-1.1v-0.2c0-0.7,0.4-1.1,1.1-1.1s1.1,0.4,1.1,1.1v0.2
					C137.1,380.4,136.6,380.8,135.9,380.8z M135.9,371.7c-0.7,0-1.1-0.4-1.1-1.1v-0.2c0-0.7,0.4-1.1,1.1-1.1s1.1,0.4,1.1,1.1v0.2
					C137.1,371.2,136.6,371.7,135.9,371.7z M135.9,362.5c-0.7,0-1.1-0.4-1.1-1.1v-0.2c0-0.7,0.4-1.1,1.1-1.1s1.1,0.4,1.1,1.1v0.2
					C137.1,362.1,136.6,362.5,135.9,362.5z M135.9,353.4c-0.7,0-1.1-0.4-1.1-1.1V352c0-0.7,0.4-1.1,1.1-1.1s1.1,0.4,1.1,1.1v0.2
					C137.1,352.9,136.6,353.4,135.9,353.4z M135.9,344.2c-0.7,0-1.1-0.4-1.1-1.1v-0.2c0-0.7,0.4-1.1,1.1-1.1s1.1,0.4,1.1,1.1
					C137.1,343.5,136.6,344.2,135.9,344.2z M135.9,335c-0.7,0-1.1-0.4-1.1-1.1v-0.2c0-0.7,0.4-1.1,1.1-1.1s1.1,0.4,1.1,1.1v0.2
					C137.1,334.6,136.6,335,135.9,335z M135.9,325.9c-0.7,0-1.1-0.4-1.1-1.1v-0.2c0-0.7,0.4-1.1,1.1-1.1s1.1,0.4,1.1,1.1v0.2
					C137.1,325.4,136.6,325.9,135.9,325.9z M135.9,316.7c-0.7,0-1.1-0.4-1.1-1.1v-0.2c0-0.7,0.4-1.1,1.1-1.1s1.1,0.4,1.1,1.1v0.2
					C137.1,316.3,136.6,316.7,135.9,316.7z M135.9,307.5c-0.7,0-1.1-0.4-1.1-1.1v-0.2c0-0.7,0.4-1.1,1.1-1.1s1.1,0.4,1.1,1.1v0.2
					C137.1,307.1,136.6,307.5,135.9,307.5z M135.9,298.4c-0.7,0-1.1-0.4-1.1-1.1V297c0-0.7,0.4-1.1,1.1-1.1s1.1,0.4,1.1,1.1
					C137.1,297.7,136.6,298.4,135.9,298.4z M135.9,289.2c-0.7,0-1.1-0.4-1.1-1.1v-0.2c0-0.7,0.4-1.1,1.1-1.1s1.1,0.4,1.1,1.1v0.2
					C137.1,288.8,136.6,289.2,135.9,289.2z M135.9,280.1c-0.7,0-1.1-0.4-1.1-1.1v-0.2c0-0.7,0.4-1.1,1.1-1.1s1.1,0.4,1.1,1.1v0.2
					C137.1,279.6,136.6,280.1,135.9,280.1z M135.9,270.9c-0.7,0-1.1-0.4-1.1-1.1v-0.2c0-0.7,0.4-1.1,1.1-1.1s1.1,0.4,1.1,1.1v0.2
					C137.1,270.5,136.6,270.9,135.9,270.9z M135.9,261.7c-0.7,0-1.1-0.4-1.1-1.1v-0.2c0-0.7,0.4-1.1,1.1-1.1s1.1,0.4,1.1,1.1v0.2
					C137.1,261.3,136.6,261.7,135.9,261.7z M140.4,255c-0.4,0-0.7-0.2-0.9-0.7s-0.2-1.1,0.4-1.6h0.2c0.4-0.2,1.1-0.2,1.6,0.4
					c0.2,0.4,0.2,1.1-0.4,1.6h-0.2C140.6,255,140.6,255,140.4,255z M148.4,250.6c-0.4,0-0.9-0.2-0.9-0.4c-0.2-0.4-0.2-1.1,0.2-1.6
					h0.2c0.4-0.2,1.1-0.2,1.6,0.4c0.2,0.4,0.2,1.1-0.4,1.6C148.9,250.3,148.7,250.6,148.4,250.6z M156.3,245.9
					c-0.4,0-0.9-0.2-0.9-0.4c-0.2-0.4-0.2-1.1,0.2-1.6h0.2c0.4-0.2,1.1-0.2,1.6,0.4c0.2,0.4,0.2,1.1-0.4,1.6
					C156.7,245.9,156.5,245.9,156.3,245.9z M164.3,241.4c-0.4,0-0.7-0.2-0.9-0.7c-0.2-0.4-0.2-1.1,0.4-1.6h0.2
					c0.4-0.2,1.1-0.2,1.6,0.4c0.2,0.4,0.2,1.1-0.4,1.6H165C164.5,241.4,164.3,241.4,164.3,241.4z M172.4,236.9
					c-0.4,0-0.9-0.2-0.9-0.4c-0.2-0.4-0.2-1.1,0.2-1.6h0.2c0.4-0.2,1.1-0.2,1.6,0.4c0.2,0.4,0.2,1.1-0.4,1.6
					C172.8,236.7,172.6,236.9,172.4,236.9z M180.2,232.2c-0.4,0-0.9-0.2-0.9-0.4c-0.2-0.4-0.2-1.1,0.2-1.6h0.2
					c0.4-0.2,1.1-0.2,1.6,0.4c0.2,0.4,0.2,1.1-0.4,1.6C180.6,232.2,180.4,232.2,180.2,232.2z M188,227.8c-0.4,0-0.7-0.2-0.9-0.7
					c-0.2-0.4-0.2-1.1,0.4-1.6h0.2c0.4-0.2,1.1-0.2,1.6,0.4c0.2,0.4,0.2,1.1-0.4,1.6h-0.2C188.4,227.8,188.2,227.8,188,227.8z
					 M196.3,223.3c-0.4,0-0.9-0.2-0.9-0.4c-0.2-0.4-0.2-1.1,0.2-1.6h0.2c0.4-0.2,1.1-0.2,1.6,0.4c0.2,0.4,0.2,1.1-0.4,1.6
					C196.7,223.1,196.5,223.3,196.3,223.3z M204.1,218.6c-0.4,0-0.9-0.2-0.9-0.4c-0.2-0.4-0.2-1.1,0.2-1.6h0.2
					c0.4-0.2,1.1-0.2,1.6,0.4c0.2,0.4,0.2,1.1-0.4,1.6C204.5,218.6,204.3,218.6,204.1,218.6z M211.9,214.1c-0.4,0-0.7-0.2-0.9-0.7
					c-0.2-0.4-0.2-1.1,0.4-1.6h0.2c0.4-0.2,1.1-0.2,1.6,0.4c0.2,0.4,0.2,1.1-0.4,1.6h-0.2C212.4,214.1,212.1,214.1,211.9,214.1z
					 M220,209.7c-0.4,0-0.9-0.2-0.9-0.4c-0.2-0.4-0.2-1.1,0.2-1.6h0.2c0.4-0.2,1.1-0.2,1.6,0.4c0.2,0.4,0.2,1.1-0.4,1.6
					C220.4,209.4,220.2,209.7,220,209.7z M228,205c-0.4,0-0.9-0.2-0.9-0.4c-0.2-0.4-0.2-1.1,0.2-1.6h0.2c0.4-0.2,1.1-0.2,1.6,0.4
					c0.2,0.4,0.2,1.1-0.4,1.6C228.4,205,228.2,205,228,205z M235.8,200.7c-0.4,0-0.7-0.2-0.9-0.7c-0.2-0.4-0.2-1.1,0.4-1.6h0.2
					c0.4-0.2,1.1-0.2,1.6,0.4c0.2,0.4,0.2,1.1-0.4,1.6h-0.2C236.3,200.5,236,200.7,235.8,200.7z"/>
				<path id="XMLID_130_" class="st1" d="M295.5,266c-0.4,0-0.9-0.2-0.9-0.4c-0.2-0.4-0.2-1.1,0.2-1.6h0.2c0.4-0.2,1.1-0.2,1.6,0.4
					c0.2,0.4,0.2,1.1-0.4,1.6C295.9,265.8,295.7,266,295.5,266z M291.7,263.3c-0.7,0-1.1-0.4-1.1-1.1V262c0-0.7,0.4-1.1,1.1-1.1
					c0.7,0,1.1,0.4,1.1,1.1v0.2C292.8,262.6,292.4,263.3,291.7,263.3z M303.3,261.3c-0.4,0-0.9-0.2-0.9-0.4
					c-0.2-0.4-0.2-1.1,0.2-1.6h0.2c0.4-0.2,1.1-0.2,1.6,0.4c0.2,0.4,0.2,1.1-0.4,1.6C303.8,261.3,303.5,261.3,303.3,261.3z
					 M311.4,256.8c-0.4,0-0.9-0.2-0.9-0.4c-0.2-0.4-0.2-1.1,0.2-1.6h0.2c0.4-0.2,1.1-0.2,1.6,0.4c0.2,0.4,0.2,1.1-0.4,1.6
					C311.8,256.6,311.6,256.8,311.4,256.8z M291.7,254.1c-0.7,0-1.1-0.4-1.1-1.1v-0.2c0-0.7,0.4-1.1,1.1-1.1c0.7,0,1.1,0.4,1.1,1.1
					v0.2C292.8,253.5,292.4,254.1,291.7,254.1z M319.2,252.1c-0.4,0-0.9-0.2-0.9-0.4c-0.2-0.4-0.2-1.1,0.2-1.6h0.2
					c0.4-0.2,1.1-0.2,1.6,0.4c0.2,0.4,0.2,1.1-0.4,1.6C319.6,252.1,319.4,252.1,319.2,252.1z M327,247.7c-0.4,0-0.7-0.2-0.9-0.4
					c-0.2-0.4-0.2-1.1,0.4-1.6l0.2-0.2c0.4-0.2,1.1-0.2,1.6,0.4c0.2,0.4,0.2,1.1-0.4,1.6l-0.2,0.2
					C327.4,247.7,327.2,247.7,327,247.7z M291.7,245c-0.7,0-1.1-0.4-1.1-1.1s0.4-1.1,1.1-1.1c0.7,0,1.1,0.4,1.1,1.1v0.2
					C292.8,244.3,292.4,245,291.7,245z M335,243c-0.4,0-0.9-0.2-0.9-0.4c-0.2-0.4-0.2-1.1,0.2-1.6l0.2-0.2c0.4-0.2,1.1-0.2,1.6,0.4
					c0.2,0.4,0.2,1.1-0.4,1.6C335.5,243,335.3,243,335,243z M343.1,238.3c-0.4,0-0.9-0.2-0.9-0.4c-0.2-0.4-0.2-1.1,0.2-1.6l0.2-0.2
					c0.4-0.2,1.1-0.2,1.6,0.4c0.2,0.4,0.2,1.1-0.4,1.6C343.5,238.3,343.3,238.3,343.1,238.3z M291.7,235.8c-0.7,0-1.1-0.4-1.1-1.1
					v-0.2c0-0.7,0.4-1.1,1.1-1.1c0.7,0,1.1,0.4,1.1,1.1v0.2C292.8,235.1,292.4,235.8,291.7,235.8z M350.9,233.8
					c-0.4,0-0.7-0.2-0.9-0.4c-0.2-0.4-0.2-1.1,0.4-1.6l0.2-0.2c0.4-0.2,1.1-0.2,1.6,0.4c0.2,0.4,0.2,1.1-0.4,1.6l-0.2,0.2
					C351.1,233.8,351.1,233.8,350.9,233.8z M358.9,229.1c-0.4,0-0.9-0.2-0.9-0.4c-0.2-0.4-0.2-1.1,0.2-1.6l0.2-0.2
					c0.4-0.2,1.1-0.2,1.6,0.4c0.2,0.4,0.2,1.1-0.4,1.6C359.4,229.1,359.2,229.1,358.9,229.1z M291.7,226.7c-0.7,0-1.1-0.4-1.1-1.1
					v-0.2c0-0.7,0.4-1.1,1.1-1.1c0.7,0,1.1,0.4,1.1,1.1v0.2C292.8,226,292.4,226.7,291.7,226.7z M366.8,224.6
					c-0.4,0-0.9-0.2-0.9-0.4c-0.2-0.4-0.2-1.1,0.2-1.6h0.2c0.4-0.2,1.1-0.2,1.6,0.4c0.2,0.4,0.2,1.1-0.4,1.6
					C367.2,224.6,367,224.6,366.8,224.6z M374.6,220.2c-0.4,0-0.7-0.2-0.9-0.7c-0.2-0.4-0.2-1.1,0.4-1.6h0.2
					c0.4-0.2,1.1-0.2,1.6,0.4c0.2,0.4,0.2,1.1-0.4,1.6h-0.2C375,220.2,374.8,220.2,374.6,220.2z M382.6,215.5
					c-0.4,0-0.9-0.2-0.9-0.4c-0.2-0.4-0.2-1.1,0.2-1.6h0.2c0.4-0.2,1.1-0.2,1.6,0.4c0.2,0.4,0.2,1.1-0.4,1.6
					C383.1,215.5,382.9,215.5,382.6,215.5z"/>
			</g>
		</g>
	</g>
	<g id="XMLID_148_">
		<g id="XMLID_149_">
			<path id="XMLID_672_" class="st6" d="M852.4,214.4l-81.1,46.9c-5.8,3.4-16.3,2.9-23.2-0.9l-77.8-44.9c-6.9-4-7.6-10.1-1.6-13.4
				l81.1-46.9c5.8-3.4,16.3-2.9,23.2,0.9l77.8,44.9C857.5,205,858.4,211,852.4,214.4z"/>
			<g id="XMLID_150_">
				
					<linearGradient id="XMLID_345_" gradientUnits="userSpaceOnUse" x1="881.9935" y1="763.8177" x2="723.335" y2="448.7357" gradientTransform="matrix(1 0 0 -1 0 1002)">
					<stop  offset="0" style="stop-color:#E6F2FB"/>
					<stop  offset="5.554383e-002" style="stop-color:#E2EEF9"/>
					<stop  offset="0.6478" style="stop-color:#CAD7EE"/>
					<stop  offset="0.9993" style="stop-color:#C0CDE9"/>
				</linearGradient>
				<path id="XMLID_151_" class="st7" d="M856.4,502.2V209.7l0,0l0,0c-0.4,1.8-1.6,3.4-3.8,4.7l-81.1,46.9
					c-2.9,1.6-6.7,2.5-10.7,2.2V558c4,0,7.8-0.7,10.7-2.2l81.1-46.9C855.5,507.1,856.8,504.6,856.4,502.2z"/>
				<path id="XMLID_152_" class="st8" d="M748.2,260.2l-77.8-44.9c-3.4-1.8-5.1-4.2-5.6-6.5v292.5c-0.7,2.9,1.3,6.3,5.6,8.7
					l77.8,44.9c3.6,2,8,3.1,12.5,3.1V263.5C756.3,263.3,751.8,262.2,748.2,260.2z"/>
				
					<linearGradient id="XMLID_349_" gradientUnits="userSpaceOnUse" x1="915.4269" y1="920.1697" x2="659.1907" y2="538.7952" gradientTransform="matrix(1 0 0 -1 0 1002)">
					<stop  offset="0" style="stop-color:#E6F2FB"/>
					<stop  offset="5.554383e-002" style="stop-color:#E2EEF9"/>
					<stop  offset="0.6478" style="stop-color:#CAD7EE"/>
					<stop  offset="0.9993" style="stop-color:#C0CDE9"/>
				</linearGradient>
				<path id="XMLID_153_" class="st9" d="M748.2,260.2l-77.8-44.9c-3.4-1.8-5.1-4.2-5.6-6.5v292.5c-0.7,2.9,1.3,6.3,5.6,8.7
					l77.8,44.9c3.6,2,8,3.1,12.5,3.1V263.5C756.3,263.3,751.8,262.2,748.2,260.2z"/>
			</g>
		</g>
		<g id="XMLID_154_">
			<g id="XMLID_155_">
				<path id="XMLID_666_" class="st10" d="M828,241.6c0,16.5-8.7,25.7-21.2,24.6c-2.9,0.2-6-0.4-9.6-2.5l-103.7-59.9
					c-0.9-0.4-1.8-1.1-2.5-1.6c-17.4-12.1-31.1-37.1-31.1-57.7c0-20.1,13-29.3,29.7-22.3c2.5-14.3,14.5-19.4,28.8-10.9
					c4.7,2.7,9.4,6.7,13.4,11.4c7.6-6.5,19.2-6.7,32.4,0.9c19.7,11.4,36,36.4,40.4,60.1c6,4.2,10.5,12.7,10.7,19.9
					C823.1,215.3,828,229.3,828,241.6z"/>
				<g id="XMLID_156_">
					<path id="XMLID_157_" class="st11" d="M837.6,190.7c-0.2-7.2-4.7-15.6-10.7-19.9c-4.5-23.7-20.8-48.9-40.4-60.1
						c-11.4-6.7-21.9-7.2-29.5-2.9l-3.1,1.8c-4-4.5-8.3-8.5-13.2-11.2c-8-4.7-15.4-5.1-20.8-2l-18.8,10.7c-3.1,0-5.8,0.7-8.3,2
						l-22.1,12.7c5.1-2.7,11.6-2.7,19,0.2c2.5-14.3,14.5-19.4,28.8-10.9c4.7,2.7,9.4,6.7,13.4,11.4c7.6-6.5,19.2-6.7,32.4,0.9
						c19.7,11.4,36,36.4,40.4,60.1c6,4.2,10.5,12.7,10.7,19.9c7.8,11.8,12.7,25.7,12.7,38.2c0,11.4-4,19.2-10.7,22.6l22.1-12.7
						c6.7-3.4,10.9-11.4,10.9-22.8C850.3,216.4,845.4,202.5,837.6,190.7z"/>
				</g>
			</g>
			<g id="XMLID_158_">
				<path id="XMLID_662_" class="st12" d="M706.9,189.3c0,4-2.9,5.8-6.5,3.8c-3.6-2-6.5-6.9-6.5-11.2c0-4,2.9-5.8,6.5-3.8
					C704,180.2,706.9,185.1,706.9,189.3z"/>
				<path id="XMLID_661_" class="st12" d="M727,200.7c0,4-2.9,5.8-6.5,3.8c-3.6-2-6.5-6.9-6.5-11.2c0-4,2.9-5.8,6.5-3.8
					C724.1,191.6,727,196.7,727,200.7z"/>
				<path id="XMLID_660_" class="st12" d="M747.1,212.4c0,4-2.9,5.8-6.5,3.8c-3.6-2-6.5-6.9-6.5-11.2c0-4,2.9-5.8,6.5-3.8
					C744.2,203.4,747.1,208.3,747.1,212.4z"/>
				<path id="XMLID_659_" class="st12" d="M767,224c0,4-2.9,5.8-6.5,3.8c-3.6-2-6.5-6.9-6.5-11.2c0-4,2.9-5.8,6.5-3.8
					C764.1,214.8,767,219.7,767,224z"/>
				<path id="XMLID_658_" class="st12" d="M787.1,235.4c0,4-2.9,5.8-6.5,3.8c-3.6-2-6.5-6.9-6.5-11.2c0-4,2.9-5.8,6.5-3.8
					C784.2,226.4,787.1,231.3,787.1,235.4z"/>
			</g>
		</g>
	</g>
	<g id="XMLID_161_">
		<path id="XMLID_654_" class="st6" d="M853.5,719.6l-148.6,83.1c-6.5,3.8-18.1,3.4-25.7-1.1l-49.4-29.5c-7.6-4.5-8.5-11.2-1.8-15
			l147.9-84.9c6.5-3.8,18.1-3.4,25.7,1.1l50.1,31.1C859.1,709.1,860,715.8,853.5,719.6z"/>
		<g id="XMLID_162_">
			
				<linearGradient id="XMLID_350_" gradientUnits="userSpaceOnUse" x1="857.5594" y1="296.1897" x2="519.2628" y2="35.2899" gradientTransform="matrix(1 0 0 -1 0 1002)">
				<stop  offset="0" style="stop-color:#E6F2FB"/>
				<stop  offset="5.554383e-002" style="stop-color:#E2EEF9"/>
				<stop  offset="0.6478" style="stop-color:#CAD7EE"/>
				<stop  offset="0.9993" style="stop-color:#C0CDE9"/>
			</linearGradient>
			<path id="XMLID_163_" class="st13" d="M857.7,728.8v-14.5l0,0l0,0c-0.4,2-1.8,3.8-4.2,5.4l-148.6,83.1c-3.1,1.8-7.6,2.7-12.1,2.5
				v17c4.5,0,8.7-0.7,12.1-2.5l148.6-83.1C856.8,734.4,858.2,731.7,857.7,728.8z"/>
			
				<linearGradient id="XMLID_353_" gradientUnits="userSpaceOnUse" x1="757.2341" y1="298.5291" x2="637.3948" y2="189.9247" gradientTransform="matrix(1 0 0 -1 0 1002)">
				<stop  offset="0" style="stop-color:#E6F2FB"/>
				<stop  offset="5.554383e-002" style="stop-color:#E2EEF9"/>
				<stop  offset="0.6478" style="stop-color:#CAD7EE"/>
				<stop  offset="0.9993" style="stop-color:#C0CDE9"/>
			</linearGradient>
			<path id="XMLID_164_" class="st14" d="M678.9,801.6l-49.4-29.5c-3.6-2-5.6-4.7-6.3-7.4v14.5c-0.7,3.4,1.3,6.9,6.3,9.6l49.4,29.5
				c4,2.2,8.9,3.6,13.9,3.6v-17C688.1,805.2,683,803.9,678.9,801.6z"/>
		</g>
	</g>
	<g id="XMLID_165_">
		<path id="XMLID_649_" class="st6" d="M915.1,811l-148.6,83.1c-6.5,3.8-18.1,3.4-25.7-1.1l-49.4-29.3c-7.6-4.5-8.5-11.2-1.8-15
			l147.9-84.9c6.5-3.8,18.1-3.4,25.7,1.1l50.1,31.1C921,800.5,921.9,807.2,915.1,811z"/>
		<g id="XMLID_166_">
			
				<linearGradient id="XMLID_354_" gradientUnits="userSpaceOnUse" x1="911.3102" y1="193.3224" x2="593.9449" y2="-30.7002" gradientTransform="matrix(1 0 0 -1 0 1002)">
				<stop  offset="0" style="stop-color:#E6F2FB"/>
				<stop  offset="5.554383e-002" style="stop-color:#E2EEF9"/>
				<stop  offset="0.6478" style="stop-color:#CAD7EE"/>
				<stop  offset="0.9993" style="stop-color:#C0CDE9"/>
			</linearGradient>
			<path id="XMLID_167_" class="st15" d="M919.6,820.4v-14.5l0,0l0,0c-0.4,2-1.8,3.8-4.2,5.4l-148.6,83.1c-3.1,1.8-7.6,2.7-12.1,2.5
				v17c4.5,0,8.7-0.7,12.1-2.5l148.6-83.1C918.7,826,920.1,823.3,919.6,820.4z"/>
			
				<linearGradient id="XMLID_357_" gradientUnits="userSpaceOnUse" x1="860.4966" y1="205.9004" x2="711.1484" y2="111.4598" gradientTransform="matrix(1 0 0 -1 0 1002)">
				<stop  offset="0" style="stop-color:#E6F2FB"/>
				<stop  offset="5.554383e-002" style="stop-color:#E2EEF9"/>
				<stop  offset="0.6478" style="stop-color:#CAD7EE"/>
				<stop  offset="0.9993" style="stop-color:#C0CDE9"/>
			</linearGradient>
			<path id="XMLID_168_" class="st16" d="M740.8,893.2l-49.4-29.5c-3.6-2-5.6-4.7-6.3-7.4v14.5c-0.7,3.4,1.3,6.9,6.3,9.6l49.4,29.5
				c4,2.2,8.9,3.6,13.9,3.6v-17C749.8,896.6,744.9,895.5,740.8,893.2z"/>
		</g>
	</g>
	<g id="XMLID_169_">
		<g id="XMLID_170_">
			<path id="XMLID_644_" class="st6" d="M889,575.7L448.3,829.3c-19.9,11.4-54.7,10.1-77.8-3.1L101.7,671.6
				c-23-13.2-25.5-33.5-5.6-44.9l448.3-250.1c19.9-11.4,54.7-10.1,77.8,3.1l261.2,150.8C906.2,544,908.7,564.1,889,575.7z"/>
			<g id="XMLID_171_">
				
					<linearGradient id="XMLID_362_" gradientUnits="userSpaceOnUse" x1="944.2689" y1="512.1312" x2="378.5429" y2="76.5439" gradientTransform="matrix(1 0 0 -1 0 1002)">
					<stop  offset="0" style="stop-color:#E6F2FB"/>
					<stop  offset="5.554383e-002" style="stop-color:#E2EEF9"/>
					<stop  offset="0.6478" style="stop-color:#CAD7EE"/>
					<stop  offset="0.9993" style="stop-color:#C0CDE9"/>
				</linearGradient>
				<path id="XMLID_172_" class="st17" d="M902,571.9v-12.1l0,0l0,0c-1.1,6-5.6,11.6-13,15.9L448.3,829.3c-9.6,5.6-22.6,8-36.2,7.6
					v19.2c13.4,0.2,26.6-2,36.2-7.6L889,594.7C899.3,588.7,903.5,580.4,902,571.9z"/>
				<path id="XMLID_173_" class="st18" d="M370.6,826.2L101.7,671.6c-10.9-6.3-17.2-14.3-18.5-21.9v12.1c-2,9.8,4.2,20.8,18.5,29.1
					l268.8,154.6c11.8,6.9,27,10.5,41.6,10.9v-19.2C397.6,836.7,382.4,833.1,370.6,826.2z"/>
				
					<linearGradient id="XMLID_364_" gradientUnits="userSpaceOnUse" x1="618.9216" y1="196.2099" x2="394.7156" y2="227.8913" gradientTransform="matrix(1 0 0 -1 0 1002)">
					<stop  offset="0" style="stop-color:#E6F2FB"/>
					<stop  offset="5.554383e-002" style="stop-color:#E2EEF9"/>
					<stop  offset="0.6478" style="stop-color:#CAD7EE"/>
					<stop  offset="0.9993" style="stop-color:#C0CDE9"/>
				</linearGradient>
				<path id="XMLID_174_" class="st19" d="M370.6,826.2L101.7,671.6c-10.9-6.3-17.2-14.3-18.5-21.9v12.1c-2,9.8,4.2,20.8,18.5,29.1
					l268.8,154.6c11.8,6.9,27,10.5,41.6,10.9v-19.2C397.6,836.7,382.4,833.1,370.6,826.2z"/>
			</g>
		</g>
		<g id="XMLID_175_">
			<g id="XMLID_176_">
				<polygon id="XMLID_638_" class="st12" points="475.1,715.4 383.1,768.5 148.9,633.4 241,580.2 				"/>
				
					<linearGradient id="XMLID_368_" gradientUnits="userSpaceOnUse" x1="471.6772" y1="282.981" x2="195.7011" y2="10.3571" gradientTransform="matrix(1 0 0 -1 0 1002)">
					<stop  offset="0" style="stop-color:#E6F2FB"/>
					<stop  offset="5.554383e-002" style="stop-color:#E2EEF9"/>
					<stop  offset="0.6478" style="stop-color:#CAD7EE"/>
					<stop  offset="0.9993" style="stop-color:#C0CDE9"/>
				</linearGradient>
				<polygon id="XMLID_177_" class="st20" points="475.1,715.4 475.1,753.6 383.1,806.8 383.1,768.5 				"/>
				
					<linearGradient id="XMLID_370_" gradientUnits="userSpaceOnUse" x1="610.7396" y1="181.8538" x2="195.0999" y2="302.5233" gradientTransform="matrix(1 0 0 -1 0 1002)">
					<stop  offset="0" style="stop-color:#E6F2FB"/>
					<stop  offset="5.554383e-002" style="stop-color:#E2EEF9"/>
					<stop  offset="0.6478" style="stop-color:#CAD7EE"/>
					<stop  offset="0.9993" style="stop-color:#C0CDE9"/>
				</linearGradient>
				<polygon id="XMLID_178_" class="st21" points="148.9,633.4 148.9,671.3 383.1,806.8 383.1,768.5 				"/>
			</g>
			<g id="XMLID_179_">
				<g id="XMLID_180_">
					<path id="XMLID_634_" class="st22" d="M284.1,621.1l-40.4,23.2c-2.9,1.8-8,1.6-11.6-0.4l-38.7-22.3c-3.4-2-3.8-4.9-0.9-6.7
						l40.4-23.2c2.9-1.8,8-1.6,11.6,0.4l38.7,22.3C286.5,616.4,287,619.5,284.1,621.1z"/>
					<g id="XMLID_181_">
						<path id="XMLID_182_" class="st23" d="M285.9,636.5v-17.9l0,0l0,0c-0.2,0.9-0.9,1.8-2,2.5l-40.4,23.2
							c-1.3,0.9-3.4,1.1-5.4,1.1v18.8c2,0,4-0.2,5.4-1.1l40.4-23.2C285.7,638.9,286.1,637.8,285.9,636.5z"/>
						<path id="XMLID_183_" class="st24" d="M232,643.9l-38.7-22.3c-1.6-0.9-2.5-2-2.7-3.4V636c-0.2,1.6,0.7,3.1,2.7,4.2l38.7,22.3
							c1.8,1.1,4,1.6,6.3,1.6v-18.8C236,645.4,233.8,645,232,643.9z"/>
					</g>
				</g>
				<g id="XMLID_184_">
					<path id="XMLID_629_" class="st25" d="M355.2,662.4l-40.4,23.2c-2.9,1.8-8,1.6-11.6-0.4l-38.7-22.3c-3.4-2-3.8-4.9-0.9-6.7
						l40.4-23.2c2.9-1.8,8-1.6,11.6,0.4l38.7,22.3C357.8,657.7,358.1,660.6,355.2,662.4z"/>
					<g id="XMLID_185_">
						<path id="XMLID_186_" class="st26" d="M357.2,677.8v-17.9l0,0l0,0c-0.2,0.9-0.9,1.8-2,2.5l-40.4,23.2
							c-1.3,0.9-3.4,1.1-5.4,1.1v18.8c2,0,4-0.2,5.4-1.1l40.4-23.2C356.7,680.3,357.4,678.9,357.2,677.8z"/>
						<path id="XMLID_187_" class="st27" d="M303.3,685.2l-38.7-22.3c-1.6-0.9-2.5-2-2.7-3.4v17.9c-0.2,1.6,0.7,3.1,2.7,4.2
							l38.7,22.3c1.8,1.1,4,1.6,6.3,1.6v-18.8C307.3,686.8,305.1,686.1,303.3,685.2z"/>
					</g>
				</g>
				<g id="XMLID_188_">
					<path id="XMLID_624_" class="st28" d="M428,704.2l-40.4,23.2c-2.9,1.8-8,1.6-11.6-0.4l-38.7-22.3c-3.4-2-3.8-4.9-0.9-6.7
						l40.4-23.2c2.9-1.8,8-1.6,11.6,0.4l38.7,22.3C430.5,699.5,430.9,702.4,428,704.2z"/>
					<g id="XMLID_189_">
						<path id="XMLID_190_" class="st29" d="M429.8,719.6v-17.9l0,0l0,0c-0.2,0.9-0.9,1.8-2,2.5l-40.2,23.2
							c-1.3,0.9-3.4,1.1-5.4,1.1v18.8c2,0,4-0.2,5.4-1.1L428,723C429.3,722.1,430,721,429.8,719.6z"/>
						<path id="XMLID_191_" class="st30" d="M375.9,727l-38.7-22.3c-1.6-0.9-2.5-2-2.7-3.4v17.9c-0.2,1.6,0.7,3.1,2.7,4.2l38.7,22.3
							c1.8,1.1,4,1.6,6.3,1.6v-18.8C380,728.5,377.7,728.1,375.9,727z"/>
					</g>
				</g>
			</g>
		</g>
		<g id="XMLID_192_">
			<g id="XMLID_193_">
				<path id="XMLID_617_" class="st12" d="M853.2,483.9c24.4,14.1,24.4,36.9,0,50.7c-24.4,14.1-63.7,14.1-88,0
					c-24.4-14.1-24.4-36.9,0-50.7C789.6,469.8,829.1,469.8,853.2,483.9z"/>
				<g id="XMLID_194_">
					
						<linearGradient id="XMLID_373_" gradientUnits="userSpaceOnUse" x1="917.2653" y1="459.5664" x2="748.5511" y2="453.9798" gradientTransform="matrix(1 0 0 -1 0 1002)">
						<stop  offset="0" style="stop-color:#E6F2FB"/>
						<stop  offset="5.554383e-002" style="stop-color:#E2EEF9"/>
						<stop  offset="0.6478" style="stop-color:#CAD7EE"/>
						<stop  offset="0.9993" style="stop-color:#C0CDE9"/>
					</linearGradient>
					<path id="XMLID_195_" class="st31" d="M853.2,534.8c-24.4,14.1-63.7,14.1-88,0c-12.1-6.9-18.1-16.1-18.3-25.3v38.7
						c0,9.2,6,18.5,18.3,25.7c24.4,14.1,63.7,14.1,88,0c12.3-7.2,18.3-16.3,18.3-25.7v-38.7C871.6,518.7,865.3,527.7,853.2,534.8z"
						/>
				</g>
			</g>
			<g id="XMLID_196_">
				<path id="XMLID_613_" class="st32" d="M809.2,481.8l38,21.9c-20.8,12.1-55.2,12.1-76,0c-20.8-12.1-20.8-32,0-43.8
					c11.6-6.7,27.9-10.1,44.5-8.9L809.2,481.8z"/>
				<g id="XMLID_197_">
					<path id="XMLID_198_" class="st24" d="M771.2,504c-10.3-6-15.6-13.9-15.6-21.9v22.1c0,8,5.1,16.1,15.6,22.1
						c20.8,12.1,55.2,12.1,76,0V504C826.4,515.8,792.2,515.8,771.2,504z"/>
				</g>
				<path id="XMLID_610_" class="st22" d="M809.2,481.8l38,21.9c-20.8,12.1-55.2,12.1-76,0c-20.8-12.1-20.8-32,0-43.8
					c11.6-6.7,27.9-10.1,44.5-8.9L809.2,481.8z"/>
				<path id="XMLID_609_" class="st25" d="M809.2,459.3l6.3-30.8c12.1,0.9,23,4,31.7,8.9c20.8,12.1,20.8,32,0,43.8L809.2,459.3z"/>
				<polygon id="XMLID_199_" class="st27" points="809.2,459.3 809.2,481.8 847.4,504 847.4,481.2 				"/>
				<path id="XMLID_200_" class="st26" d="M863.1,504v-44.7c0,7.8-5.4,15.9-15.6,21.7v22.8v22.3C857.9,520.1,863.1,512,863.1,504z"
					/>
			</g>
		</g>
		<g id="XMLID_201_">
			<g id="XMLID_202_">
				<g id="XMLID_203_">
					<path id="XMLID_604_" class="st12" d="M681.4,447.7l-88.5-51.2c-10.5-6-9.2-16.5,2.9-23.5l0,0c12.1-6.9,30.4-7.8,40.9-1.8
						l88.3,51.2c10.5,6,9.2,16.5-2.9,23.5l0,0C710,452.8,691.7,453.7,681.4,447.7z"/>
				</g>
				<g id="XMLID_204_">
					
						<linearGradient id="XMLID_375_" gradientUnits="userSpaceOnUse" x1="733.1721" y1="533.6859" x2="602.4466" y2="607.9874" gradientTransform="matrix(1 0 0 -1 0 1002)">
						<stop  offset="0" style="stop-color:#E6F2FB"/>
						<stop  offset="5.554383e-002" style="stop-color:#E2EEF9"/>
						<stop  offset="0.6478" style="stop-color:#CAD7EE"/>
						<stop  offset="0.9993" style="stop-color:#C0CDE9"/>
					</linearGradient>
					<path id="XMLID_205_" class="st33" d="M722.1,445.9c-12.1,6.9-30.4,7.8-40.9,1.8l-88.5-51.2c-4.5-2.7-6.9-6-7.2-9.8l0,0v26.1
						v0.2c0,3.8,2.5,7.4,7.2,10.1l88.5,51.2c10.5,6,28.8,5.4,40.9-1.8c6.9-4,10.3-8.9,10.1-13.9v-26.4
						C732.1,436.9,728.8,442.1,722.1,445.9z"/>
				</g>
			</g>
			<g id="XMLID_206_">
				<path id="XMLID_599_" class="st1" d="M630.5,388.7c-4.5,2.7-11.8,2.7-16.5,0c-4.5-2.7-4.5-6.9,0-9.4c4.5-2.7,11.8-2.7,16.5,0
					C635.1,382,635.1,386.2,630.5,388.7z"/>
				<path id="XMLID_598_" class="st1" d="M656.2,403.6c-4.5,2.7-11.8,2.7-16.5,0c-4.5-2.7-4.5-6.9,0-9.4c4.5-2.7,11.8-2.7,16.5,0
					C660.6,396.7,660.6,401,656.2,403.6z"/>
				<path id="XMLID_597_" class="st1" d="M681.9,418.4c-4.5,2.7-11.8,2.7-16.5,0c-4.5-2.7-4.5-6.9,0-9.4c4.5-2.7,11.8-2.7,16.5,0
					C686.3,411.5,686.3,415.7,681.9,418.4z"/>
				<path id="XMLID_596_" class="st1" d="M707.6,433.1c-4.5,2.7-11.8,2.7-16.5,0c-4.5-2.7-4.5-6.9,0-9.4c4.5-2.7,11.8-2.7,16.5,0
					C712,426.4,712,430.7,707.6,433.1z"/>
			</g>
		</g>
	</g>
	<g id="XMLID_207_">
		<g id="XMLID_208_">
			<path id="XMLID_592_" class="st34" d="M644.3,401.4L644.3,401.4c3.1,0.4,6-1.6,6.5-4.7l5.6-31.7c0.4-3.1-1.6-6-4.7-6.5l0,0
				c-3.1-0.4-6,1.6-6.5,4.7l-5.6,31.7C639.2,398,641.2,401,644.3,401.4z"/>
			<path id="XMLID_591_" class="st34" d="M618.8,403.4L618.8,403.4c0.9,2.9,4.2,4.7,7.2,3.8l19.7-5.8c3.1-0.2,5.6-2.9,5.4-6l0,0
				c-0.2-3.1-2.9-5.6-6-5.4l-22.3,6.3C619.5,397.4,617.9,400.5,618.8,403.4z"/>
		</g>
		<g id="XMLID_209_">
			<g id="XMLID_210_">
				<g id="XMLID_211_">
					<path id="XMLID_589_" class="st35" d="M677.6,497.3c0,0.7-0.4,1.3-1.6,2c-0.2,0.2,0-4-0.9-3.4c-0.2,0.2-13.9,10.9-21.7,8.9
						c-0.9-0.2-1.1-0.9-1.1-1.6v-1.8c0-2,2.7-4.9,7.2-9.2c4.9-4.7,7.8-7.6,15-3.6c2,1.1,2.9,2,2.9,2.9L677.6,497.3z"/>
					<path id="XMLID_588_" class="st36" d="M659.7,492.3c-5.8,5.6-8.9,8.9-6,10.7s8.9-0.9,15-5.6c5.4-4,13.2-4.5,6-8.7
						C667.6,484.8,664.4,487.7,659.7,492.3z"/>
				</g>
			</g>
			<path id="XMLID_585_" class="st37" d="M665.5,489.7l0.4-52.3l17.2,5.6l-2.9,8.5c0,0,1.3,11.4-2.2,23c0,0-2.5,5.1-2,16.8
				C676,491,669.8,494.8,665.5,489.7z"/>
		</g>
		<g id="XMLID_212_">
			<g id="XMLID_213_">
				<g id="XMLID_214_">
					<path id="XMLID_583_" class="st35" d="M661.1,483.6c0,0.7-0.4,1.3-1.6,2c-0.2,0.2,0-4-0.9-3.4c-0.2,0.2-13.9,10.9-21.7,8.9
						c-0.9-0.2-1.1-0.9-1.1-1.6v-1.8c0-2,2.7-4.9,7.2-9.2c4.9-4.7,7.8-7.6,15-3.6c2,1.1,2.9,2,2.9,2.9L661.1,483.6z"/>
					<path id="XMLID_582_" class="st36" d="M643,478.5c-5.8,5.6-8.9,8.9-6,10.7c2.9,1.8,8.9-0.9,15-5.6c5.4-4,13.2-4.5,6-8.7
						C650.8,470.9,647.7,473.8,643,478.5z"/>
				</g>
			</g>
			<path id="XMLID_579_" class="st38" d="M648.8,475.8l0.4-52.3l17.2,5.6l-2.9,8.5c0,0,1.3,11.4-2.2,23c0,0-2.5,5.1-2,16.8
				C659.5,477.4,653,481,648.8,475.8z"/>
		</g>
		<path id="XMLID_577_" class="st22" d="M689.5,425.1v19.2c0,0-22.6,7.6-44-19.2v-18.8L689.5,425.1z"/>
		<path id="XMLID_576_" class="st39" d="M678.5,432.5c-0.2,0.2-0.4,0.2-0.7,0.2c-3.8,0.2-17.4-2.7-31.1-18.1
			c-1.1-1.3-1.8-2.9-1.8-4.5v-43.6c0-3.4,1.1-5.6,3.1-6.7l10.3-6c1.8-1.1,4.5-0.9,7.4,0.7l14.1,8c5.6,3.4,10.3,11.2,10.3,17.9v44
			c0,1.1-0.4,1.8-0.9,2L678.5,432.5z"/>
		<path id="XMLID_575_" class="st40" d="M674.7,365.4c0,1.1-0.7,2.2-2,2.9c-2.9,1.6-7.4,1.6-10.3,0c-1.3-0.9-2.2-2-2-2.9v-9.6
			c0-1.1,0.7-2.2,2-2.9c2.9-1.6,7.4-1.6,10.3,0c1.3,0.9,2.2,2,2,2.9V365.4z"/>
		<path id="XMLID_574_" class="st34" d="M674,351.8c0,2.5,1.6,3.4,3.8,2.2c2.2-1.1,3.8-4,3.8-6.5s-1.6-3.4-3.8-2.2
			C675.6,346.7,674,349.6,674,351.8z"/>
		<path id="XMLID_573_" class="st41" d="M654.6,377.5c0,0-19.2-17.4-7.6-48.7l8.9,32.4L654.6,377.5z"/>
		<circle id="XMLID_572_" class="st37" cx="667.6" cy="340.6" r="19.9"/>
		<path id="XMLID_571_" class="st41" d="M661.5,377.5c0,0,14.7-16.3,4.5-46.7l-18.5,6.3c0,0-6.3-15.6,14.5-20.3
			c0,0,13.9-3.1,18.8,8.5c0,0,11.2,0.9,6.9,23.9C687.9,349.3,687.2,371.2,661.5,377.5z"/>
		<g id="XMLID_215_">
			<path id="XMLID_570_" class="st34" d="M674.7,414.1L674.7,414.1c2.9,0.9,6.3-0.9,6.9-4l8.7-32.6c0.9-2.9-0.9-6.3-4-6.9l0,0
				c-2.9-0.9-6.3,0.9-6.9,4l-8.7,32.6C669.8,410.3,671.6,413.5,674.7,414.1z"/>
			<path id="XMLID_569_" class="st34" d="M642.7,415.5L642.7,415.5c0.7,3.1,3.6,4.9,6.7,4.5l26.4-5.4c3.1,0,5.8-2.5,5.8-5.6l0,0
				c0-3.1-2.5-5.8-5.6-5.8l-29.1,5.6C644.1,409.2,642.3,412.3,642.7,415.5z"/>
		</g>
	</g>
	<path id="XMLID_218_" class="st12" d="M284.5,548.7V353.1c0-4.9,2.7-9.6,6.9-12.1l235.1-135.9c9.2-5.4,20.8,1.3,20.8,12.1V413
		c0,4.9-2.7,9.6-6.9,12.1L305.3,561C296.2,566.1,284.5,559.4,284.5,548.7z"/>
	<path id="XMLID_219_" class="st42" d="M298.6,558c-4.5,0-9.2-3.6-9.2-9.2V353.1c0-3.4,1.8-6.3,4.7-8l235.1-135.9
		c1.3-0.9,2.9-1.3,4.7-1.3c4.5,0,9.2,3.6,9.2,9.2v195.8c0,3.4-1.8,6.3-4.7,8L303.3,556.7C301.7,557.6,300.2,558,298.6,558z"/>
	<g id="XMLID_220_">
		
			<linearGradient id="XMLID_377_" gradientUnits="userSpaceOnUse" x1="514.4205" y1="825.9013" x2="251.852" y2="513.0541" gradientTransform="matrix(1 0 0 -1 0 1002)">
			<stop  offset="0" style="stop-color:#E6F2FB"/>
			<stop  offset="5.554383e-002" style="stop-color:#E2EEF9"/>
			<stop  offset="0.6478" style="stop-color:#CAD7EE"/>
			<stop  offset="0.9993" style="stop-color:#C0CDE9"/>
		</linearGradient>
		<path id="XMLID_221_" class="st43" d="M284.5,548.7V353.1c0-4.9,2.7-9.6,6.9-12.1l235.1-135.9c3.8-2.2,8.3-2.5,11.8-0.9l0,0
			l-5.6-2.9c-4.2-3.1-10.1-3.8-15.2-0.9L282.5,336.1c-4.2,2.5-6.9,7.2-6.9,12.1V544c0,4.7,2.2,8.7,5.8,11.2l0,0h0.2
			c0.9,0.7,2,1.1,2.9,1.6l6.3,3.4C287,557.8,284.5,553.8,284.5,548.7z"/>
		
			<linearGradient id="XMLID_380_" gradientUnits="userSpaceOnUse" x1="293.2514" y1="440.3774" x2="293.2514" y2="440.3774" gradientTransform="matrix(1 0 0 -1 0 1002)">
			<stop  offset="0" style="stop-color:#E6F2FB"/>
			<stop  offset="5.554383e-002" style="stop-color:#E2EEF9"/>
			<stop  offset="0.6478" style="stop-color:#CAD7EE"/>
			<stop  offset="0.9993" style="stop-color:#C0CDE9"/>
		</linearGradient>
		<path id="XMLID_222_" class="st44" d="M293.3,561.6L293.3,561.6L293.3,561.6L293.3,561.6z"/>
	</g>
	<g id="XMLID_223_">
		<path id="XMLID_224_" class="st12" d="M305.3,584.9l169.4,97.9c4.2,2.5,9.6,2.5,13.9,0l235.1-135.9c9.2-5.4,9.2-18.8,0-24.1
			l-169.4-97.9c-4.2-2.5-9.6-2.5-13.9,0L305.3,560.7C296.2,566.1,296.2,579.5,305.3,584.9z"/>
		
			<linearGradient id="XMLID_383_" gradientUnits="userSpaceOnUse" x1="797.2051" y1="420.2712" x2="392.8387" y2="367.2235" gradientTransform="matrix(1 0 0 -1 0 1002)">
			<stop  offset="0" style="stop-color:#E6F2FB"/>
			<stop  offset="5.554383e-002" style="stop-color:#E2EEF9"/>
			<stop  offset="0.6478" style="stop-color:#CAD7EE"/>
			<stop  offset="0.9993" style="stop-color:#C0CDE9"/>
		</linearGradient>
		<path id="XMLID_558_" class="st45" d="M723.9,546.9L488.8,682.7c-4.2,2.5-9.6,2.5-13.9,0l-169.4-97.9c-4.7-2.7-6.9-7.4-6.9-12.1
			v12.7c0,4.7,2.2,9.4,6.9,12.1l169.4,97.9c4.2,2.5,9.6,2.5,13.9,0l235.1-135.9c4.5-2.5,6.7-6.9,6.9-11.4l0,0V548c0-0.2,0-0.7,0-0.9
			v-11.6C730.8,539.9,728.3,544.2,723.9,546.9z M730.8,534.1C730.8,534.4,730.8,534.4,730.8,534.1L730.8,534.1L730.8,534.1z"/>
		<path id="XMLID_557_" class="st46" d="M636.3,508.4l-202,116.6c-7.8,4.5-21.7,4-30.8-1.3l-60.6-35.1c-9.2-5.4-10.1-13.2-2.2-17.7
			l202-116.6c7.8-4.5,21.7-4,30.8,1.3l60.8,35.1C643.2,495.9,644.1,504,636.3,508.4z"/>
		<path id="XMLID_225_" class="st47" d="M340.6,573.7l202-116.6c7.8-4.5,21.7-4,30.8,1.3l60.8,35.1c4.2,2.5,6.7,5.6,7.4,8.7
			c0.9-3.8-1.8-8.3-7.4-11.4l-60.8-35.1c-9.2-5.4-22.8-5.8-30.8-1.3L340.6,571c-4,2.5-5.8,5.6-5.1,9.2
			C335.9,577.7,337.5,575.5,340.6,573.7z"/>
		<path id="XMLID_542_" class="st47" d="M503.5,507.8l-10.7-6.3l-10.7,6.3l10.7,6.3L503.5,507.8z M482.5,519.8l-10.7-6.3l-10.7,6.3
			l10.7,6.3L482.5,519.8z M524.5,495.5l-10.7-6.3l-10.7,6.3l10.7,6.3L524.5,495.5z M585.8,502l22.3-13l-10.7-6.3l-22.3,13L585.8,502
			z M590,478.7l-10.7-6.3l-10.7,6.3l10.7,6.3L590,478.7z M545.8,483.4l-10.7-6.3l-10.7,6.3l10.7,6.3L545.8,483.4z M461.5,532.1
			l-10.7-6.3l-10.7,6.3l10.7,6.3L461.5,532.1z M571.5,497.9L386.9,604.5l10.7,6.3l184.6-106.6L571.5,497.9z M440.5,544.2l-10.7-6.3
			l-10.7,6.3l10.7,6.3L440.5,544.2z M563,481.8L368.8,594l10.7,6.3l194.2-112.2L563,481.8z M615.5,493.5L405,615l10.7,6.3
			l210.5-121.6L615.5,493.5z M398.3,568.5l-10.7-6.3l-10.7,6.3l10.7,6.3L398.3,568.5z M419.3,556.3l-10.7-6.3l-10.7,6.3l10.7,6.3
			L419.3,556.3z"/>
		<path id="XMLID_528_" class="st48" d="M503.5,505.8l-10.7-6.3l-10.7,6.3l10.7,6.3L503.5,505.8z M482.5,518l-10.7-6.3l-10.7,6.3
			l10.7,6.3L482.5,518z M524.5,493.7l-10.7-6.3l-10.7,6.3l10.7,6.3L524.5,493.7z M585.8,500.2l22.3-13l-10.7-6.3l-22.3,13
			L585.8,500.2z M590,476.9l-10.7-6.3l-10.7,6.3l10.7,6.3L590,476.9z M545.8,481.6l-10.7-6.3l-10.7,6.3l10.7,6.3L545.8,481.6z
			 M461.5,530.1l-10.7-6.3l-10.7,6.3l10.7,6.3L461.5,530.1z M571.5,496.1L386.9,602.7l10.7,6.3l184.6-106.6L571.5,496.1z
			 M440.5,542.4l-10.7-6.3l-10.7,6.3l10.7,6.3L440.5,542.4z M563,480.1L368.8,592.2l10.7,6.3l194.2-112.2L563,480.1z M615.5,491.5
			L405,613l10.7,6.3l210.5-121.6L615.5,491.5z M398.3,566.5l-10.7-6.3l-10.7,6.3l10.7,6.3L398.3,566.5z M419.3,554.5l-10.7-6.3
			l-10.7,6.3l10.7,6.3L419.3,554.5z"/>
		<path id="XMLID_514_" class="st12" d="M513.8,488.3l9.8,5.8l0.9-0.4l-10.7-6.3l-10.7,6.3l0.9,0.4L513.8,488.3z M535,476.3l9.8,5.8
			l0.9-0.4l-10.7-6.3l-10.7,6.3l0.9,0.4L535,476.3z M492.8,500.6l9.8,5.8l0.9-0.4l-10.7-6.3l-10.7,6.3l0.9,0.4L492.8,500.6z
			 M575.9,494.4l21.5-12.5l9.8,5.8l0.9-0.4l-10.7-6.3l-22.3,13L575.9,494.4z M471.8,512.7l9.8,5.8l0.9-0.4l-10.7-6.3l-10.7,6.3
			l0.9,0.4L471.8,512.7z M579.3,471.6l9.8,5.8l0.9-0.4l-10.7-6.3l-10.7,6.3l0.9,0.4L579.3,471.6z M615.5,491.5L405,613l0.9,0.4
			l209.8-121.1l9.8,5.8l0.9-0.4L615.5,491.5z M572.8,486.8l0.9-0.4l-10.7-6.3L368.8,592.2l0.9,0.4L563,481L572.8,486.8z
			 M387.6,561.4l9.8,5.8l0.9-0.4l-10.7-6.3l-10.7,6.3l0.9,0.4L387.6,561.4z M581.3,502.6l0.9-0.4l-10.7-6.3L386.9,602.5l0.9,0.4
			l183.7-106.1L581.3,502.6z M408.6,549.1l9.8,5.8l0.9-0.4l-10.7-6.3l-10.7,6.3l0.9,0.4L408.6,549.1z M450.8,525l9.8,5.8l0.9-0.4
			l-10.7-6.3l-10.7,6.3l0.9,0.4L450.8,525z M429.8,537l9.8,5.8l0.9-0.4l-10.7-6.3l-10.7,6.3l0.9,0.4L429.8,537z"/>
		<path id="XMLID_513_" class="st46" d="M619.7,577l-63,36.4c-3.8,2.2-10.7,2-15.2-0.7l-13.9-8c-4.5-2.7-4.9-6.5-1.1-8.9l63-36.4
			c3.8-2.2,10.7-2,15.2,0.7l13.9,8C623.1,570.8,623.8,574.8,619.7,577z"/>
		<path id="XMLID_228_" class="st47" d="M526.5,597.8l63-36.4c3.8-2.2,10.7-2,15.2,0.7l13.9,8c2,1.1,3.1,2.7,3.6,4
			c0.4-2-0.7-4.2-3.6-6l-13.9-8c-4.5-2.7-11.4-2.9-15.2-0.7l-63,36.4c-2.2,1.3-2.9,2.9-2.5,4.7C524.3,599.6,525.2,598.5,526.5,597.8
			z"/>
	</g>
	<g id="XMLID_268_">
		<g id="XMLID_269_">
			<path id="XMLID_510_" class="st12" d="M509.6,276.5v-7.2c0-6.3-4.5-8.7-9.8-5.6l-167.6,96.8c-5.4,3.1-9.8,10.7-9.8,17v7.2
				L509.6,276.5z"/>
			<g id="XMLID_270_">
				<path id="XMLID_509_" class="st12" d="M339.7,365.2c0,2.5-1.8,5.6-4,6.7c-2.2,1.3-4,0.2-4-2.2s1.8-5.6,4-6.7
					C338.2,361.8,339.7,362.7,339.7,365.2z"/>
				<path id="XMLID_508_" class="st12" d="M353.6,357.4c0,2.5-1.8,5.6-4,6.7c-2.2,1.3-4,0.2-4-2.2s1.8-5.6,4-6.7
					C351.8,354,353.6,354.9,353.6,357.4z"/>
				<path id="XMLID_507_" class="st12" d="M367.4,349.3c0,2.5-1.8,5.6-4,6.7c-2.2,1.3-4,0.2-4-2.2s1.8-5.6,4-6.7
					C365.7,345.8,367.4,346.9,367.4,349.3z"/>
			</g>
			<polygon id="XMLID_505_" class="st28" points="352.2,402.3 322.5,419.5 322.5,392.5 352.2,375.5 			"/>
			<polygon id="XMLID_504_" class="st25" points="389.1,381.1 359.6,398 359.6,371.2 389.1,354 			"/>
			<polygon id="XMLID_503_" class="st22" points="426.2,359.6 396.5,376.8 396.5,349.8 426.2,332.8 			"/>
			
				<linearGradient id="XMLID_389_" gradientUnits="userSpaceOnUse" x1="436.3723" y1="672.2197" x2="509.5851" y2="672.2197" gradientTransform="matrix(1 0 0 -1 0 1002)">
				<stop  offset="0" style="stop-color:#FDFEFF;stop-opacity:0"/>
				<stop  offset="0.1209" style="stop-color:#FBF9D8;stop-opacity:0.121"/>
				<stop  offset="0.3661" style="stop-color:#FCF38F;stop-opacity:0.3663"/>
				<stop  offset="0.5853" style="stop-color:#FDF056;stop-opacity:0.5857"/>
				<stop  offset="0.7704" style="stop-color:#FDED26;stop-opacity:0.771"/>
				<stop  offset="0.9143" style="stop-color:#FDEC11;stop-opacity:0.9149"/>
				<stop  offset="0.9993" style="stop-color:#FDEB03"/>
			</linearGradient>
			<polygon id="XMLID_502_" class="st49" points="436.3,353.8 509.6,311.6 509.6,305.8 436.3,348 			"/>
			
				<linearGradient id="XMLID_391_" gradientUnits="userSpaceOnUse" x1="436.3723" y1="682.8342" x2="509.5851" y2="682.8342" gradientTransform="matrix(1 0 0 -1 0 1002)">
				<stop  offset="0" style="stop-color:#FDFEFF;stop-opacity:0"/>
				<stop  offset="0.1209" style="stop-color:#FBF9D8;stop-opacity:0.121"/>
				<stop  offset="0.3661" style="stop-color:#FCF38F;stop-opacity:0.3663"/>
				<stop  offset="0.5853" style="stop-color:#FDF056;stop-opacity:0.5857"/>
				<stop  offset="0.7704" style="stop-color:#FDED26;stop-opacity:0.771"/>
				<stop  offset="0.9143" style="stop-color:#FDEC11;stop-opacity:0.9149"/>
				<stop  offset="0.9993" style="stop-color:#FDEB03"/>
			</linearGradient>
			<polygon id="XMLID_501_" class="st50" points="436.3,343.1 509.6,300.8 509.6,295.3 436.3,337.5 			"/>
			
				<linearGradient id="XMLID_393_" gradientUnits="userSpaceOnUse" x1="436.3723" y1="693.4486" x2="509.5851" y2="693.4486" gradientTransform="matrix(1 0 0 -1 0 1002)">
				<stop  offset="0" style="stop-color:#FDFEFF;stop-opacity:0"/>
				<stop  offset="0.1209" style="stop-color:#FBF9D8;stop-opacity:0.121"/>
				<stop  offset="0.3661" style="stop-color:#FCF38F;stop-opacity:0.3663"/>
				<stop  offset="0.5853" style="stop-color:#FDF056;stop-opacity:0.5857"/>
				<stop  offset="0.7704" style="stop-color:#FDED26;stop-opacity:0.771"/>
				<stop  offset="0.9143" style="stop-color:#FDEC11;stop-opacity:0.9149"/>
				<stop  offset="0.9993" style="stop-color:#FDEB03"/>
			</linearGradient>
			<polygon id="XMLID_500_" class="st51" points="436.3,332.6 509.6,290.1 509.6,284.5 436.3,326.8 			"/>
			<path id="XMLID_499_" class="st12" d="M503.1,373L329,473.6c-3.6,2-6.5-0.2-6.5-4.9v-32.4c0-4.7,2.9-10.3,6.5-12.3l174.1-100.6
				c3.6-2,6.5,0.2,6.5,4.9v32.4C509.6,365.4,506.7,371,503.1,373z"/>
			<g id="XMLID_271_">
				<polygon id="XMLID_498_" class="st28" points="398.9,426 376.2,439.2 376.2,411 398.9,397.8 				"/>
				<polygon id="XMLID_497_" class="st22" points="427.6,409.4 404.8,422.6 404.8,398.9 427.6,385.8 				"/>
				<polygon id="XMLID_496_" class="st25" points="455.9,393.1 433.1,406.3 433.1,371.7 455.9,358.5 				"/>
			</g>
			
				<linearGradient id="XMLID_396_" gradientUnits="userSpaceOnUse" x1="459.7475" y1="615.7777" x2="515.4621" y2="650.019" gradientTransform="matrix(1 0 0 -1 0 1002)">
				<stop  offset="0" style="stop-color:#FDFEFF;stop-opacity:0"/>
				<stop  offset="0.2768" style="stop-color:#F7B1C8;stop-opacity:0.277"/>
				<stop  offset="0.5268" style="stop-color:#F2769C;stop-opacity:0.5272"/>
				<stop  offset="0.7381" style="stop-color:#EF4E7F;stop-opacity:0.7386"/>
				<stop  offset="0.9023" style="stop-color:#EE396C;stop-opacity:0.9029"/>
				<stop  offset="0.9993" style="stop-color:#EE3165"/>
			</linearGradient>
			<polygon id="XMLID_494_" class="st52" points="496.8,366.1 503.1,362.5 503.1,356.9 496.8,360.5 			"/>
			
				<linearGradient id="XMLID_399_" gradientUnits="userSpaceOnUse" x1="455.0124" y1="623.4821" x2="510.7271" y2="657.7234" gradientTransform="matrix(1 0 0 -1 0 1002)">
				<stop  offset="0" style="stop-color:#FDFEFF;stop-opacity:0"/>
				<stop  offset="0.2768" style="stop-color:#F7B1C8;stop-opacity:0.277"/>
				<stop  offset="0.5268" style="stop-color:#F2769C;stop-opacity:0.5272"/>
				<stop  offset="0.7381" style="stop-color:#EF4E7F;stop-opacity:0.7386"/>
				<stop  offset="0.9023" style="stop-color:#EE396C;stop-opacity:0.9029"/>
				<stop  offset="0.9993" style="stop-color:#EE3165"/>
			</linearGradient>
			<polygon id="XMLID_493_" class="st53" points="496.8,355.4 503.1,352 503.1,346.2 496.8,349.8 			"/>
			
				<linearGradient id="XMLID_402_" gradientUnits="userSpaceOnUse" x1="450.2275" y1="631.2676" x2="505.9423" y2="665.509" gradientTransform="matrix(1 0 0 -1 0 1002)">
				<stop  offset="0" style="stop-color:#FDFEFF;stop-opacity:0"/>
				<stop  offset="0.2768" style="stop-color:#F7B1C8;stop-opacity:0.277"/>
				<stop  offset="0.5268" style="stop-color:#F2769C;stop-opacity:0.5272"/>
				<stop  offset="0.7381" style="stop-color:#EF4E7F;stop-opacity:0.7386"/>
				<stop  offset="0.9023" style="stop-color:#EE396C;stop-opacity:0.9029"/>
				<stop  offset="0.9993" style="stop-color:#EE3165"/>
			</linearGradient>
			<polygon id="XMLID_492_" class="st54" points="496.8,344.9 503.1,341.3 503.1,335.7 496.8,339.1 			"/>
			
				<linearGradient id="XMLID_403_" gradientUnits="userSpaceOnUse" x1="459.4063" y1="616.3327" x2="515.1211" y2="650.5741" gradientTransform="matrix(1 0 0 -1 0 1002)">
				<stop  offset="0" style="stop-color:#FDFEFF;stop-opacity:0"/>
				<stop  offset="0.2768" style="stop-color:#F7B1C8;stop-opacity:0.277"/>
				<stop  offset="0.5268" style="stop-color:#F2769C;stop-opacity:0.5272"/>
				<stop  offset="0.7381" style="stop-color:#EF4E7F;stop-opacity:0.7386"/>
				<stop  offset="0.9023" style="stop-color:#EE396C;stop-opacity:0.9029"/>
				<stop  offset="0.9993" style="stop-color:#EE3165"/>
			</linearGradient>
			<polygon id="XMLID_491_" class="st55" points="462.4,386 493.9,367.9 493.9,362.1 462.4,380.4 			"/>
			
				<linearGradient id="XMLID_409_" gradientUnits="userSpaceOnUse" x1="454.6215" y1="624.1183" x2="510.3363" y2="658.3596" gradientTransform="matrix(1 0 0 -1 0 1002)">
				<stop  offset="0" style="stop-color:#FDFEFF;stop-opacity:0"/>
				<stop  offset="0.2768" style="stop-color:#F7B1C8;stop-opacity:0.277"/>
				<stop  offset="0.5268" style="stop-color:#F2769C;stop-opacity:0.5272"/>
				<stop  offset="0.7381" style="stop-color:#EF4E7F;stop-opacity:0.7386"/>
				<stop  offset="0.9023" style="stop-color:#EE396C;stop-opacity:0.9029"/>
				<stop  offset="0.9993" style="stop-color:#EE3165"/>
			</linearGradient>
			<polygon id="XMLID_490_" class="st56" points="462.4,375.5 493.9,357.2 493.9,351.6 462.4,369.7 			"/>
			
				<linearGradient id="XMLID_414_" gradientUnits="userSpaceOnUse" x1="449.8864" y1="631.8226" x2="505.6012" y2="666.064" gradientTransform="matrix(1 0 0 -1 0 1002)">
				<stop  offset="0" style="stop-color:#FDFEFF;stop-opacity:0"/>
				<stop  offset="0.2768" style="stop-color:#F7B1C8;stop-opacity:0.277"/>
				<stop  offset="0.5268" style="stop-color:#F2769C;stop-opacity:0.5272"/>
				<stop  offset="0.7381" style="stop-color:#EF4E7F;stop-opacity:0.7386"/>
				<stop  offset="0.9023" style="stop-color:#EE396C;stop-opacity:0.9029"/>
				<stop  offset="0.9993" style="stop-color:#EE3165"/>
			</linearGradient>
			<polygon id="XMLID_489_" class="st57" points="462.4,364.8 493.9,346.4 493.9,340.8 462.4,359.2 			"/>
			
				<linearGradient id="XMLID_415_" gradientUnits="userSpaceOnUse" x1="376.22" y1="594.731" x2="313.2005" y2="552.0061" gradientTransform="matrix(1 0 0 -1 0 1002)">
				<stop  offset="0" style="stop-color:#FDFEFF;stop-opacity:0"/>
				<stop  offset="0.1209" style="stop-color:#FBF9D8;stop-opacity:0.121"/>
				<stop  offset="0.3661" style="stop-color:#FCF38F;stop-opacity:0.3663"/>
				<stop  offset="0.5853" style="stop-color:#FDF056;stop-opacity:0.5857"/>
				<stop  offset="0.7704" style="stop-color:#FDED26;stop-opacity:0.771"/>
				<stop  offset="0.9143" style="stop-color:#FDEC11;stop-opacity:0.9149"/>
				<stop  offset="0.9993" style="stop-color:#FDEB03"/>
			</linearGradient>
			<polygon id="XMLID_488_" class="st58" points="335.5,432.5 329.5,435.8 329.5,441.6 335.5,438 			"/>
			
				<linearGradient id="XMLID_422_" gradientUnits="userSpaceOnUse" x1="381.2019" y1="587.3825" x2="318.1826" y2="544.6576" gradientTransform="matrix(1 0 0 -1 0 1002)">
				<stop  offset="0" style="stop-color:#FDFEFF;stop-opacity:0"/>
				<stop  offset="0.1209" style="stop-color:#FBF9D8;stop-opacity:0.121"/>
				<stop  offset="0.3661" style="stop-color:#FCF38F;stop-opacity:0.3663"/>
				<stop  offset="0.5853" style="stop-color:#FDF056;stop-opacity:0.5857"/>
				<stop  offset="0.7704" style="stop-color:#FDED26;stop-opacity:0.771"/>
				<stop  offset="0.9143" style="stop-color:#FDEC11;stop-opacity:0.9149"/>
				<stop  offset="0.9993" style="stop-color:#FDEB03"/>
			</linearGradient>
			<polygon id="XMLID_487_" class="st59" points="335.5,443 329.5,446.5 329.5,452.1 335.5,448.8 			"/>
			
				<linearGradient id="XMLID_424_" gradientUnits="userSpaceOnUse" x1="386.1322" y1="580.1106" x2="323.1129" y2="537.3857" gradientTransform="matrix(1 0 0 -1 0 1002)">
				<stop  offset="0" style="stop-color:#FDFEFF;stop-opacity:0"/>
				<stop  offset="0.1209" style="stop-color:#FBF9D8;stop-opacity:0.121"/>
				<stop  offset="0.3661" style="stop-color:#FCF38F;stop-opacity:0.3663"/>
				<stop  offset="0.5853" style="stop-color:#FDF056;stop-opacity:0.5857"/>
				<stop  offset="0.7704" style="stop-color:#FDED26;stop-opacity:0.771"/>
				<stop  offset="0.9143" style="stop-color:#FDEC11;stop-opacity:0.9149"/>
				<stop  offset="0.9993" style="stop-color:#FDEB03"/>
			</linearGradient>
			<polygon id="XMLID_486_" class="st60" points="335.5,453.7 329.5,457.3 329.5,462.9 335.5,459.3 			"/>
			
				<linearGradient id="XMLID_426_" gradientUnits="userSpaceOnUse" x1="377.2684" y1="593.1846" x2="314.2491" y2="550.4597" gradientTransform="matrix(1 0 0 -1 0 1002)">
				<stop  offset="0" style="stop-color:#FDFEFF;stop-opacity:0"/>
				<stop  offset="0.1209" style="stop-color:#FBF9D8;stop-opacity:0.121"/>
				<stop  offset="0.3661" style="stop-color:#FCF38F;stop-opacity:0.3663"/>
				<stop  offset="0.5853" style="stop-color:#FDF056;stop-opacity:0.5857"/>
				<stop  offset="0.7704" style="stop-color:#FDED26;stop-opacity:0.771"/>
				<stop  offset="0.9143" style="stop-color:#FDEC11;stop-opacity:0.9149"/>
				<stop  offset="0.9993" style="stop-color:#FDEB03"/>
			</linearGradient>
			<polygon id="XMLID_485_" class="st61" points="370.1,412.3 338.4,430.7 338.4,436.3 370.1,418.2 			"/>
			
				<linearGradient id="XMLID_427_" gradientUnits="userSpaceOnUse" x1="382.1985" y1="585.9126" x2="319.1793" y2="543.1877" gradientTransform="matrix(1 0 0 -1 0 1002)">
				<stop  offset="0" style="stop-color:#FDFEFF;stop-opacity:0"/>
				<stop  offset="0.1209" style="stop-color:#FBF9D8;stop-opacity:0.121"/>
				<stop  offset="0.3661" style="stop-color:#FCF38F;stop-opacity:0.3663"/>
				<stop  offset="0.5853" style="stop-color:#FDF056;stop-opacity:0.5857"/>
				<stop  offset="0.7704" style="stop-color:#FDED26;stop-opacity:0.771"/>
				<stop  offset="0.9143" style="stop-color:#FDEC11;stop-opacity:0.9149"/>
				<stop  offset="0.9993" style="stop-color:#FDEB03"/>
			</linearGradient>
			<polygon id="XMLID_484_" class="st62" points="370.1,423.1 338.4,441.4 338.4,447 370.1,428.7 			"/>
			
				<linearGradient id="XMLID_430_" gradientUnits="userSpaceOnUse" x1="387.1287" y1="578.6406" x2="324.1093" y2="535.9156" gradientTransform="matrix(1 0 0 -1 0 1002)">
				<stop  offset="0" style="stop-color:#FDFEFF;stop-opacity:0"/>
				<stop  offset="0.1209" style="stop-color:#FBF9D8;stop-opacity:0.121"/>
				<stop  offset="0.3661" style="stop-color:#FCF38F;stop-opacity:0.3663"/>
				<stop  offset="0.5853" style="stop-color:#FDF056;stop-opacity:0.5857"/>
				<stop  offset="0.7704" style="stop-color:#FDED26;stop-opacity:0.771"/>
				<stop  offset="0.9143" style="stop-color:#FDEC11;stop-opacity:0.9149"/>
				<stop  offset="0.9993" style="stop-color:#FDEB03"/>
			</linearGradient>
			<polygon id="XMLID_483_" class="st63" points="370.1,433.6 338.4,451.9 338.4,457.7 370.1,439.4 			"/>
		</g>
		<path id="XMLID_481_" class="st12" d="M497,404.1l-159.3,92.1c-3.4,2-6-0.2-6-4.5l0,0c0-4.5,2.7-9.6,6-11.4L497,388.2
			c3.4-2,6,0.2,6,4.5l0,0C503.1,396.9,500.4,402.1,497,404.1z"/>
	</g>
	<g id="XMLID_272_">
		<g id="XMLID_273_">
			
				<linearGradient id="XMLID_431_" gradientUnits="userSpaceOnUse" x1="346.2042" y1="677.869" x2="176.1744" y2="378.809" gradientTransform="matrix(1 0 0 -1 0 1002)">
				<stop  offset="0" style="stop-color:#E6F2FB"/>
				<stop  offset="0.3075" style="stop-color:#D8E5F5;stop-opacity:0.6923"/>
				<stop  offset="0.9993" style="stop-color:#C0CDE9;stop-opacity:0"/>
			</linearGradient>
			<path id="XMLID_479_" class="st64" d="M331.2,522.5l-151.1,87.2c-4.7,2.7-8.5-0.2-8.5-6.5V460.4c0-6.3,3.8-13.6,8.5-16.3
				l151.1-87.2c4.7-2.7,8.5,0.2,8.5,6.5v142.8C339.7,512.5,335.9,519.8,331.2,522.5z"/>
			<g id="XMLID_274_">
				
					<linearGradient id="XMLID_433_" gradientUnits="userSpaceOnUse" x1="359.2931" y1="636.4324" x2="238.9394" y2="429.8896" gradientTransform="matrix(1 0 0 -1 0 1002)">
					<stop  offset="0" style="stop-color:#E6F2FB"/>
					<stop  offset="5.554383e-002" style="stop-color:#E2EEF9"/>
					<stop  offset="0.6478" style="stop-color:#CAD7EE"/>
					<stop  offset="0.9993" style="stop-color:#C0CDE9"/>
				</linearGradient>
				<polygon id="XMLID_478_" class="st65" points="326.5,508 184.6,589.8 184.6,579.1 326.5,497.3 				"/>
				
					<linearGradient id="XMLID_434_" gradientUnits="userSpaceOnUse" x1="326.7637" y1="655.3875" x2="206.4099" y2="448.8447" gradientTransform="matrix(1 0 0 -1 0 1002)">
					<stop  offset="0" style="stop-color:#E6F2FB"/>
					<stop  offset="5.554383e-002" style="stop-color:#E2EEF9"/>
					<stop  offset="0.6478" style="stop-color:#CAD7EE"/>
					<stop  offset="0.9993" style="stop-color:#C0CDE9"/>
				</linearGradient>
				<path id="XMLID_477_" class="st66" d="M299.5,443.2c0,27.9-19.7,61.9-43.8,76c-24.1,14.1-43.8,2.7-43.8-25.3
					c0-27.9,19.7-61.9,43.8-76C279.8,404.1,299.5,415.3,299.5,443.2z"/>
			</g>
		</g>
		<g id="XMLID_275_">
			
				<linearGradient id="XMLID_437_" gradientUnits="userSpaceOnUse" x1="644.5901" y1="885.8286" x2="506.5124" y2="598.5386" gradientTransform="matrix(1 0 0 -1 0 1002)">
				<stop  offset="0" style="stop-color:#E6F2FB"/>
				<stop  offset="0.3075" style="stop-color:#D8E5F5;stop-opacity:0.6923"/>
				<stop  offset="0.9993" style="stop-color:#C0CDE9;stop-opacity:0"/>
			</linearGradient>
			<path id="XMLID_474_" class="st67" d="M641.4,303.5l-151.1,87.2c-4.7,2.7-8.5-0.2-8.5-6.5V272.7c0-6.3,3.8-13.6,8.5-16.3
				l151.1-87.2c4.7-2.7,8.5,0.2,8.5,6.5v111.5C649.9,293.5,646.1,300.8,641.4,303.5z"/>
			<g id="XMLID_276_">
				
					<linearGradient id="XMLID_438_" gradientUnits="userSpaceOnUse" x1="672.2974" y1="775.5734" x2="488.1516" y2="612.9766" gradientTransform="matrix(1 0 0 -1 0 1002)">
					<stop  offset="0" style="stop-color:#E6F2FB"/>
					<stop  offset="5.554383e-002" style="stop-color:#E2EEF9"/>
					<stop  offset="0.6478" style="stop-color:#CAD7EE"/>
					<stop  offset="0.9993" style="stop-color:#C0CDE9"/>
				</linearGradient>
				<polygon id="XMLID_473_" class="st68" points="636.7,284.8 495,366.5 495,356 636.7,274 				"/>
				
					<linearGradient id="XMLID_439_" gradientUnits="userSpaceOnUse" x1="661.4319" y1="787.8787" x2="477.2861" y2="625.2819" gradientTransform="matrix(1 0 0 -1 0 1002)">
					<stop  offset="0" style="stop-color:#E6F2FB"/>
					<stop  offset="5.554383e-002" style="stop-color:#E2EEF9"/>
					<stop  offset="0.6478" style="stop-color:#CAD7EE"/>
					<stop  offset="0.9993" style="stop-color:#C0CDE9"/>
				</linearGradient>
				<polygon id="XMLID_472_" class="st69" points="636.7,262.9 495,344.9 495,334.1 636.7,252.4 				"/>
				<g id="XMLID_277_">
					
						<linearGradient id="XMLID_456_" gradientUnits="userSpaceOnUse" x1="633.174" y1="819.8819" x2="449.0286" y2="657.2855" gradientTransform="matrix(1 0 0 -1 0 1002)">
						<stop  offset="0" style="stop-color:#E6F2FB"/>
						<stop  offset="5.554383e-002" style="stop-color:#E2EEF9"/>
						<stop  offset="0.6478" style="stop-color:#CAD7EE"/>
						<stop  offset="0.9993" style="stop-color:#C0CDE9"/>
					</linearGradient>
					<polygon id="XMLID_471_" class="st70" points="535.9,295.7 497.9,317.6 497.9,273.8 535.9,251.7 					"/>
					
						<linearGradient id="XMLID_457_" gradientUnits="userSpaceOnUse" x1="640.5882" y1="811.485" x2="456.4429" y2="648.8889" gradientTransform="matrix(1 0 0 -1 0 1002)">
						<stop  offset="0" style="stop-color:#E6F2FB"/>
						<stop  offset="5.554383e-002" style="stop-color:#E2EEF9"/>
						<stop  offset="0.6478" style="stop-color:#CAD7EE"/>
						<stop  offset="0.9993" style="stop-color:#C0CDE9"/>
					</linearGradient>
					<polygon id="XMLID_470_" class="st71" points="584.9,267.5 546.9,289.4 546.9,245.4 584.9,223.5 					"/>
					
						<linearGradient id="XMLID_460_" gradientUnits="userSpaceOnUse" x1="648.0025" y1="803.0883" x2="463.857" y2="640.4916" gradientTransform="matrix(1 0 0 -1 0 1002)">
						<stop  offset="0" style="stop-color:#E6F2FB"/>
						<stop  offset="5.554383e-002" style="stop-color:#E2EEF9"/>
						<stop  offset="0.6478" style="stop-color:#CAD7EE"/>
						<stop  offset="0.9993" style="stop-color:#C0CDE9"/>
					</linearGradient>
					<polygon id="XMLID_469_" class="st72" points="633.8,239.2 595.8,261.1 595.8,217.3 633.8,195.1 					"/>
				</g>
			</g>
		</g>
	</g>
	<g id="XMLID_216_">
		<g id="XMLID_279_">
			<path id="XMLID_464_" class="st6" d="M216.4,791.1L135.3,838c-5.8,3.4-16.3,2.9-23.2-0.9L34.3,792c-6.9-4-7.6-10.1-1.6-13.4
				l81.1-46.9c5.8-3.4,16.3-2.9,23.2,0.9l77.8,45.1C221.5,781.7,222.2,787.8,216.4,791.1z"/>
			<g id="XMLID_280_">
				
					<linearGradient id="XMLID_461_" gradientUnits="userSpaceOnUse" x1="224.8055" y1="219.4111" x2="38.4273" y2="-156.2803" gradientTransform="matrix(1 0 0 -1 0 1002)">
					<stop  offset="0" style="stop-color:#E6F2FB"/>
					<stop  offset="5.554383e-002" style="stop-color:#E2EEF9"/>
					<stop  offset="0.6478" style="stop-color:#CAD7EE"/>
					<stop  offset="0.9993" style="stop-color:#C0CDE9"/>
				</linearGradient>
				<path id="XMLID_281_" class="st73" d="M220.2,933.9V786.2l0,0l0,0c-0.4,1.8-1.6,3.4-3.8,4.7l-81.1,46.9
					c-2.9,1.6-6.7,2.5-10.7,2.2v149.7c4,0,7.8-0.7,10.7-2.2l81.1-46.9C219.5,939.1,220.6,936.6,220.2,933.9z"/>
				
					<linearGradient id="XMLID_462_" gradientUnits="userSpaceOnUse" x1="202.1674" y1="292.1149" x2="33.3234" y2="52.9191" gradientTransform="matrix(1 0 0 -1 0 1002)">
					<stop  offset="0" style="stop-color:#E6F2FB"/>
					<stop  offset="5.554383e-002" style="stop-color:#E2EEF9"/>
					<stop  offset="0.6478" style="stop-color:#CAD7EE"/>
					<stop  offset="0.9993" style="stop-color:#C0CDE9"/>
				</linearGradient>
				<path id="XMLID_282_" class="st74" d="M112,836.9L34.3,792c-3.4-1.8-5.1-4.2-5.6-6.5v147.7c-0.7,2.9,1.3,6.3,5.6,8.7l77.8,44.9
					c3.6,2,8,3.1,12.5,3.1V840.3C120.1,840.1,115.6,838.9,112,836.9z"/>
			</g>
		</g>
		<g id="XMLID_217_">
			<path id="XMLID_459_" class="st75" d="M157.2,772.1c0,34.6-24.4,48.7-54.5,31.5c-30.2-17.2-54.5-59.7-54.5-94.3
				c0-34.6,24.4-48.7,54.5-31.5C132.8,695.3,157.2,737.5,157.2,772.1z"/>
			<path id="XMLID_458_" class="st10" d="M151.8,769c0,31.3-21.9,44-48.9,28.4c-27-15.6-48.9-53.6-48.9-84.9s21.9-44,48.9-28.4
				C129.9,699.7,151.8,737.7,151.8,769z"/>
			<g id="XMLID_284_">
				<path id="XMLID_285_" class="st11" d="M131,661.5c-15.2-8.7-28.8-9.6-38.7-3.8l-27.9,16.1l0,0c9.8-5.6,23.5-4.7,38.4,3.8
					c30.2,17.4,54.5,59.7,54.5,94.3c0,17.2-6,29.5-15.9,35.1l0,0l27.9-16.1c9.8-5.6,16.1-17.9,16.1-35.3
					C185.5,721.2,161.2,678.9,131,661.5z"/>
			</g>
			<g id="XMLID_286_">
				<path id="XMLID_455_" class="st12" d="M89,751.3c2.2,0,4.7,0.7,7.2,1.3c0.2,0,0.4,0.2,0.7,0.2c1.6,0.4,2.9,1.1,4.5,2v-13.6
					l-14.7-8.5C87,739.1,87.7,745.5,89,751.3z"/>
				<path id="XMLID_454_" class="st12" d="M117.8,727.9c0.2,0,0.7,0,0.9,0s0.4,0,0.7,0c1.8-0.2,3.4-0.4,4.9-1.1
					c-3.8-6.3-8-11.6-13-15.9c1.6,2.7,2.9,5.8,4.2,9.4C116.5,722.7,117.2,725.2,117.8,727.9z"/>
				<path id="XMLID_453_" class="st12" d="M98.8,702.4c-2.7,0-5.1,1.8-7.2,5.4c-0.7,1.1-1.3,2.7-2,4.2c2.2,2.5,4.5,4.7,6.9,6.7
					c0.2,0.2,0.4,0.4,0.7,0.4c1.3,1.1,2.7,2,4.2,3.1v-18.5c-0.2-0.2-0.2,0-0.2-0.2C100.4,703.1,99.7,702.9,98.8,702.4z"/>
				<path id="XMLID_452_" class="st12" d="M96.6,755.6c-2.5-0.9-4.7-1.1-6.9-1.3c0.7,2.2,1.1,4.2,2,6.3c2,5.8,4.5,10.7,7.2,13.9
					c0.9,0.7,1.6,1.1,2.5,1.6c0,0,0,0,0.2,0.2v-18.5c-1.6-0.7-2.9-1.3-4.2-1.8C97.1,755.8,96.8,755.8,96.6,755.6z"/>
				<path id="XMLID_451_" class="st12" d="M96.2,721.2c-2.5-2-4.9-4.5-7.2-6.9c-1.3,4.5-2,10.1-2.2,16.1l14.7,8.5v-13.6
					c-1.8-1.1-3.1-2-4.5-3.4C96.8,721.4,96.6,721.4,96.2,721.2z"/>
				<path id="XMLID_450_" class="st12" d="M87.2,712c-0.4-0.4-0.9-0.9-1.1-1.3c-0.2-0.2-0.4-0.4-0.7-0.9c-1.8-2.5-3.6-4.9-5.1-7.4
					c-5.6,3.4-8.7,9.8-8.9,18.8L85,729C85,722.5,85.9,716.7,87.2,712z"/>
				<path id="XMLID_449_" class="st12" d="M87.9,754.5c-0.2,0-0.4,0-0.9,0c-0.2,0-0.4,0-0.7,0c-1.6,0.2-3.1,0.7-4.7,1.3
					c3.6,5.6,7.6,10.7,12.3,14.7c-1.6-2.7-2.9-5.8-4.2-9.4C89.2,759.2,88.6,756.7,87.9,754.5z"/>
				<path id="XMLID_448_" class="st12" d="M86.1,751.6c0.4,0,0.7,0,1.1,0c-1.3-6.3-2.2-13-2.2-19.7l-13.6-7.8
					c0.2,9.6,3.6,19.9,8.9,29.1c1.6-0.7,3.4-1.3,5.1-1.6C85.7,751.6,85.9,751.6,86.1,751.6z"/>
				<path id="XMLID_447_" class="st12" d="M87.2,708.9c0.2,0.4,0.4,0.7,0.9,0.9c0.7-1.6,1.3-3.1,2-4.5c1.3-2,2.7-3.6,4.2-4.7
					c-4.5-1.1-8.7-0.9-12.3,0.7c1.3,2.2,2.9,4.5,4.7,6.7C86.8,708.4,87,708.7,87.2,708.9z"/>
				<path id="XMLID_446_" class="st12" d="M118.5,768.8c0.4,0.4,0.9,0.9,1.1,1.6c0.2,0.2,0.4,0.4,0.7,0.9c2,2.5,3.8,4.9,5.6,7.8
					c4.9-3.4,8-9.6,8.3-18.3l-13.6-7.8C120.5,758.7,119.8,764.1,118.5,768.8z"/>
				<path id="XMLID_445_" class="st12" d="M108.9,726.1c2.5,0.9,4.9,1.6,7.2,1.8c-0.7-2.5-1.3-4.9-2-7.2c-2-5.8-4.5-10.7-7.4-13.9
					c-0.9-0.7-1.6-1.1-2.5-1.6l-0.2-0.2v18.8c1.6,0.9,2.9,1.6,4.2,2C108.4,725.9,108.7,726.1,108.9,726.1z"/>
				<path id="XMLID_444_" class="st12" d="M118.7,771.9c-0.2-0.4-0.7-0.7-0.9-1.1c-0.7,1.8-1.3,3.6-2.2,5.1c-1.3,2-2.7,3.6-4.2,4.7
					c4.9,1.3,9.4,0.9,13-0.9c-1.6-2.5-3.4-4.7-4.9-6.9C119.2,772.3,119,772.1,118.7,771.9z"/>
				<path id="XMLID_443_" class="st12" d="M120.3,730.8c-0.2,0-0.4,0-0.7,0c-0.4,0-0.9,0-1.1,0c1.3,6,2,12.7,2,18.8l13.6,7.8
					c-0.2-8.7-3.1-18.8-8.3-28.2C124.1,730.1,122.3,730.6,120.3,730.8z"/>
				<path id="XMLID_442_" class="st12" d="M116.7,730.8c-2.5-0.2-4.9-0.9-7.4-1.8c-0.2,0-0.4-0.2-0.7-0.2c-1.6-0.7-3.1-1.3-4.7-2.2
					v13.6l14.7,8.5C118.5,742.6,117.8,736.6,116.7,730.8z"/>
				<path id="XMLID_441_" class="st12" d="M109.3,760.1c2.5,2,5.1,4.2,7.4,6.7c1.1-4.2,1.8-9.6,2-15.4l-14.7-8.5v13.6
					c1.6,0.9,3.1,2,4.7,3.1C108.9,759.6,109.1,759.8,109.3,760.1z"/>
				<path id="XMLID_440_" class="st12" d="M116,769c-2.2-2.5-4.7-4.7-7.2-6.5c-0.2-0.2-0.4-0.4-0.7-0.4c-1.3-1.1-2.9-2-4.2-2.9v18.8
					l0.2,0.2c0.9,0.4,1.6,0.9,2.5,1.1c2.7,0,5.1-1.8,7.4-5.4C114.7,772.3,115.4,770.8,116,769z"/>
			</g>
		</g>
	</g>
	<g id="XMLID_278_">
		<g id="XMLID_283_">
			<g id="XMLID_287_">
				<g id="XMLID_288_">
					<g id="XMLID_289_">
						<path id="XMLID_436_" class="st35" d="M716.7,706c-0.7,0.2-0.9,1.1-1.1,2.2c0,0.4,3.6-2,3.4-0.9c0,0.4-2.7,17.4,2.9,23
							c0.7,0.7,1.3,0.4,2,0.2l1.6-0.9c1.8-0.9,2.9-4.7,4.5-10.7c1.8-6.5,2.7-10.5-4.5-14.7c-2-1.1-3.1-1.6-3.8-1.1L716.7,706z"/>
						<path id="XMLID_435_" class="st36" d="M729.9,719.2c-2,7.8-3.4,12.3-6.5,10.5c-2.9-1.8-3.6-8.3-2.7-15.9
							c0.9-6.7-2.5-13.6,4.7-9.4C732.6,708.7,731.7,712.7,729.9,719.2z"/>
					</g>
				</g>
				<path id="XMLID_432_" class="st38" d="M775.9,669.1l-14.7,5.4l-6,6.7c0,0-10.5,4.5-18.8,13.2c0,0-3.1,4.7-13.6,9.8
					c0,0,0,7.4,6.5,8.5l41.8-24.1c2.9-1.8,4.9-4.7,5.1-8C776.6,678,776.6,674.2,775.9,669.1z"/>
			</g>
		</g>
		<g id="XMLID_290_">
			<g id="XMLID_291_">
				<g id="XMLID_292_">
					<path id="XMLID_429_" class="st76" d="M745.1,742.9c0,0.7,0.4,1.3,1.6,2c0.2,0.2,0-4,0.9-3.4c0.2,0.2,13.9,10.7,21.5,8.9
						c0.9-0.2,1.1-0.9,1.1-1.6v-1.8c0-2-2.7-4.9-7.2-9.2c-4.7-4.7-7.8-7.6-15-3.4c-2,1.1-2.9,2-2.9,2.9V742.9z"/>
					<path id="XMLID_428_" class="st36" d="M763.2,737.9c5.8,5.6,8.9,8.9,6,10.7c-2.9,1.8-8.9-0.9-15-5.6c-5.4-4-13.2-4.5-6-8.7
						C755.1,730.3,758.3,733.2,763.2,737.9z"/>
				</g>
			</g>
			<path id="XMLID_425_" class="st37" d="M757.2,735.3l-0.4-52.1l-14.1,4.7l-0.2,9.6c0,0-1.3,11.4,2.2,22.8c0,0,2.5,4.9,2,16.8
				C746.7,736.8,753.1,740.4,757.2,735.3z"/>
		</g>
		<g id="XMLID_293_">
			<path id="XMLID_423_" class="st38" d="M795.8,662.2L795.8,662.2c-2.9,1.3-6.3,0-7.4-2.9l-22.3-49.4c-1.3-2.9,0-6.3,2.9-7.4l0,0
				c2.9-1.3,6.3,0,7.4,2.9l22.3,49.4C799.8,657.5,798.7,660.8,795.8,662.2z"/>
		</g>
		<g id="XMLID_294_">
			
				<linearGradient id="XMLID_463_" gradientUnits="userSpaceOnUse" x1="802.4841" y1="361.0768" x2="759.4185" y2="377.8829" gradientTransform="matrix(1 0 0 -1 0 1002)">
				<stop  offset="0" style="stop-color:#E8E8F4"/>
				<stop  offset="0.9996" style="stop-color:#C2BFE0"/>
			</linearGradient>
			<polygon id="XMLID_421_" class="st77" points="798.1,656.6 763,636.3 763,608.1 798.1,628.2 			"/>
			<g id="XMLID_295_">
				<polygon id="XMLID_420_" class="st78" points="789.3,649 789.3,627.5 790.2,628 790.2,649.4 				"/>
				<polygon id="XMLID_419_" class="st78" points="787.8,641.6 787.8,626.4 788.4,626.9 788.4,642.1 				"/>
				<polygon id="XMLID_418_" class="st78" points="786,645.4 786,625.5 786.7,626 786.7,645.6 				"/>
				<polygon id="XMLID_417_" class="st78" points="784.2,646.1 784.2,624.6 785.1,624.9 785.1,646.3 				"/>
				<polygon id="XMLID_416_" class="st78" points="782.6,631.3 782.6,623.5 783.3,624 783.3,631.8 				"/>
			</g>
		</g>
		<path id="XMLID_413_" class="st25" d="M733.5,670.9v19.2c0,0,22.6,7.6,43.8-19.2v-18.5L733.5,670.9z"/>
		<path id="XMLID_412_" class="st79" d="M743.8,676.9c0.2,0.2,0.4,0.2,0.7,0.2c3.8,0.2,17.4-2.7,31.1-18.1c1.1-1.3,1.8-2.9,1.8-4.5
			V611c0-3.4-1.1-5.6-3.1-6.7l-10.3-6c-1.8-1.1-4.5-0.9-7.4,0.7l-13.9,8c-5.6,3.4-10.3,11.2-10.3,17.7v43.8c0,1.1,0.4,1.8,0.9,2
			L743.8,676.9z"/>
		<path id="XMLID_411_" class="st40" d="M747.8,610.1c0,1.1,0.7,2.2,2,2.9c2.9,1.6,7.4,1.6,10.3,0c1.3-0.9,2.2-2,2-2.9v-9.4
			c0-1.1-0.7-2.2-2-2.9c-2.9-1.6-7.4-1.6-10.3,0c-1.3,0.9-2.2,2-2,2.9V610.1z"/>
		<g id="XMLID_296_">
			<path id="XMLID_410_" class="st34" d="M709.1,672.2L709.1,672.2c-2.7-1.3-3.8-4.9-2.5-7.6l24.6-48.7c1.3-2.7,4.9-3.8,7.6-2.5l0,0
				c2.7,1.3,3.8,4.9,2.5,7.6l-24.6,48.7C715.4,672.5,712,673.6,709.1,672.2z"/>
		</g>
		<g id="XMLID_297_">
			<path id="XMLID_408_" class="st80" d="M773.2,579.9l7.2,27.7c0.7,2.7-2,4.9-4.5,3.8l-16.3-6.9c-1.3-0.7-2.2-2-2-3.6l5.4-27.3
				c0.7-2.9,4.5-3.6,6-1.1l3.8,6.5C773,579.5,773.2,579.7,773.2,579.9z"/>
			<path id="XMLID_407_" class="st34" d="M748.2,596.5c0,2.5-1.6,3.4-3.8,2.2c-2-1.1-3.8-4-3.8-6.5c0-2.5,1.6-3.4,3.8-2.2
				C746.7,591.3,748.2,594.2,748.2,596.5z"/>
			<circle id="XMLID_406_" class="st34" cx="754.7" cy="585.3" r="19.9"/>
			<path id="XMLID_405_" class="st80" d="M735.5,588c0,0,16.8,9.2,25-14.7c0,0,4.5,10.1,15.2,7.8c0,0,0-15.6-16.3-18.8
				C759.4,562.3,730.8,559.4,735.5,588z"/>
			<path id="XMLID_404_" class="st80" d="M744.6,588.7l7.2,27.7c0.7,2.7-2,4.9-4.5,3.8l-16.3-6.9c-1.3-0.7-2.2-2-2-3.6l5.4-27.3
				c0.7-2.9,4.5-3.6,6-1.1l3.8,6.5C744.6,588,744.6,588.4,744.6,588.7z"/>
		</g>
	</g>
	<g id="XMLID_298_">
		<g id="XMLID_299_">
			<path id="XMLID_401_" class="st81" d="M586.2,673.6c-0.2,2.2,3.4,5.6,8.7,8.7c7.2,4,9.6,9.2,18.3,4.2c2.5-1.3,3.6-2.7,3.6-3.6
				v-5.4c0.2-2.5-5.8-4-10.9-7.2c-7.2-4-14.7-6.3-18.3-4.2c-0.9,0.4-1.3,1.1-1.3,2V673.6z"/>
			<path id="XMLID_400_" class="st76" d="M594.9,676.7c-7.2-4-10.9-8.5-7.4-10.5c3.6-2,11.2,0.2,18.3,4.2s16.1,5.6,7.4,10.5
				C604.5,686.1,601.9,681,594.9,676.7z"/>
		</g>
		<g id="XMLID_300_">
			<path id="XMLID_398_" class="st81" d="M605.9,660.2c-0.2,2.2,3.4,5.6,8.7,8.7c7.2,4,9.6,9.2,18.3,4.2c2.5-1.3,3.6-2.7,3.6-3.6
				v-5.4c0.2-2.5-5.8-4-10.9-7.2c-7.2-4-14.7-6.3-18.3-4.2c-0.9,0.4-1.3,1.1-1.3,2V660.2z"/>
			<path id="XMLID_397_" class="st76" d="M614.6,663.3c-7.2-4-10.9-8.5-7.4-10.5c3.6-2,11.2,0.2,18.3,4.2c7.2,4,16.1,5.6,7.4,10.5
				S621.5,667.3,614.6,663.3z"/>
		</g>
		<g id="XMLID_301_">
			<path id="XMLID_395_" class="st82" d="M598.1,497.7L598.1,497.7c2.7-1.8,6.3-0.9,8,1.8l24.1,38.4c1.8,2.7,0.9,6.3-1.8,8l0,0
				c-2.7,1.8-6.3,0.9-8-1.8l-24.1-38.4C594.5,502.9,595.4,499.3,598.1,497.7z"/>
			<path id="XMLID_394_" class="st83" d="M613.9,539.7l7.8,12.3c2.7,4.2,8.3,5.4,12.3,2.9l0,0c4.2-2.7,5.4-8.3,2.9-12.3l-7.8-12.3
				C629.1,530.1,619.3,526.5,613.9,539.7z"/>
		</g>
		<g id="XMLID_302_">
			<path id="XMLID_392_" class="st84" d="M616.6,674.9c0.2-0.4,0.4-1.1,0.4-1.8v-60.8c0-3.8-4-6.9-8.7-6.9l0,0
				c-4.9,0-8.7,3.1-8.7,6.9v65.9c0,0.9,0.7,1.8,1.6,2C604.3,681.6,612.4,683.2,616.6,674.9z"/>
		</g>
		<g id="XMLID_303_">
			<path id="XMLID_390_" class="st84" d="M636.3,660.8c0.2-0.4,0.4-1.1,0.4-1.8l-1.3-60.8c0-3.8-4-6.9-8.9-6.7l0,0
				c-4.9,0-8.7,3.4-8.7,7.2l1.3,65.9c0,0.9,0.7,1.8,1.6,2C624.2,667.8,632.2,669.1,636.3,660.8z"/>
		</g>
		<path id="XMLID_388_" class="st85" d="M602.3,623.5c0.2,0.2,0.4,0.2,0.7,0.2c3.8,0.2,17.9-2.7,32-18.5c1.1-1.3,1.8-3.1,1.8-4.5
			V556c0-3.4-1.1-5.8-3.1-6.9l-10.5-6c-2-1.1-4.5-0.9-7.6,0.7l-14.3,8.3c-5.8,3.4-10.5,11.6-10.5,18.3v44.9c0,1.1,0.4,1.8,1.1,2.2
			L602.3,623.5z"/>
		<path id="XMLID_387_" class="st37" d="M606.3,554.7c0,1.1,0.7,2.2,2.2,3.1c2.9,1.6,7.6,1.6,10.5,0c1.6-0.9,2.2-2,2.2-3.1v-9.8
			c0-1.1-0.7-2.2-2.2-3.1c-2.9-1.6-7.6-1.6-10.5,0c-1.6,0.9-2.2,2-2.2,3.1V554.7z"/>
		<circle id="XMLID_386_" class="st82" cx="613.7" cy="529.4" r="20.3"/>
		<g id="XMLID_304_">
			<path id="XMLID_385_" class="st82" d="M578.4,619.7L578.4,619.7c-3.1-1.1-4.7-4.2-3.6-7.4l15.4-41.6c1.1-3.1,4.2-4.7,7.4-3.6l0,0
				c3.1,1.1,4.7,4.2,3.6,7.4l-15.4,41.6C584.6,619.1,581.3,620.8,578.4,619.7z"/>
			<path id="XMLID_384_" class="st83" d="M601.9,582.4l4.7-13.9c1.6-4.7-0.9-9.8-5.6-11.4l0,0c-4.7-1.6-9.8,0.9-11.4,5.6l-4.7,13.9
				C584.9,576.6,588,586.4,601.9,582.4z"/>
		</g>
		<path id="XMLID_382_" class="st86" d="M625.3,548c-6.5,3.8-11.4,0.9-13.2-1.8c-4.5-6.9-5.1-2.2-7.8-5.6c-3.4-5.6-2.7-13.4-7.4-17
			c-6.9-5.1-4.9-15.2,13-19.9c23.9-6,33.5,24.1,18.5,41.6C627.3,546.9,626.7,547.1,625.3,548z"/>
		<path id="XMLID_381_" class="st82" d="M606.5,541.5c-1.8,1.8-3.6,1.1-4.2-1.1c-0.7-2.5,0.2-5.6,2-7.4s3.6-1.1,4.2,1.1
			C609.2,536.6,608.3,539.9,606.5,541.5z"/>
	</g>
	<g id="XMLID_305_">
		<g id="XMLID_306_">
			<g id="XMLID_307_">
				<g id="XMLID_308_">
					<path id="XMLID_379_" class="st82" d="M502.6,782.4L502.6,782.4c-2.2,1.6-5.6,1.1-7.2-1.3l-23.2-32.8c-1.6-2.2-1.1-5.6,1.3-7.2
						l0,0c2.2-1.6,5.6-1.1,7.2,1.3l23.2,32.8C505.5,777.7,504.9,780.8,502.6,782.4z"/>
					<path id="XMLID_378_" class="st1" d="M486.5,746l-7.6-10.5c-2.5-3.6-7.6-4.5-11.2-2l0,0c-3.6,2.5-4.5,7.6-2,11.2l7.4,10.5
						C473.6,755.1,482.3,758,486.5,746z"/>
				</g>
				<g id="XMLID_309_">
					<path id="XMLID_376_" class="st85" d="M460.4,788.2c0.2,0.4,0.7,0.9,1.1,1.1l27,15.4c2.9,1.8,7.2,0,9.2-3.6l0,0
						c2.2-3.8,1.6-8-1.6-9.8l-31.3-17.9c-0.7-0.4-1.8-0.2-2.2,0.2C460.6,775.7,455.9,781.3,460.4,788.2z"/>
				</g>
				<g id="XMLID_310_">
					<path id="XMLID_374_" class="st85" d="M442.5,797.4c0.2,0.4,0.7,0.9,1.1,1.1l27,15.4c2.9,1.8,7.2,0,9.2-3.6l0,0
						c2.2-3.8,1.6-8-1.6-9.8L447,782.6c-0.7-0.4-1.8-0.2-2.2,0.2C442.7,784.9,438.1,790.4,442.5,797.4z"/>
				</g>
				<g id="XMLID_311_">
					<g id="XMLID_312_">
						<path id="XMLID_372_" class="st35" d="M484.8,843.9c-0.2,2.2,5.1,3.6,9.6,6.3c6.3,3.6,13,5.6,16.3,3.8
							c0.9-0.4,1.1-1.1,1.1-1.8v-3.6c0.2-2-2.9-5.4-7.6-9.8c-5.1-5.1-8.5-8.3-16.3-3.8c-2.2,1.3-3.1,2.2-3.1,3.1L484.8,843.9z"/>
						<path id="XMLID_371_" class="st87" d="M504.4,838.7c6.3,6,9.6,9.6,6.5,11.6c-3.1,1.8-9.6-0.9-16.3-6
							c-5.8-4.5-14.3-4.9-6.5-9.4C495.7,830.4,499.1,833.6,504.4,838.7z"/>
					</g>
					<path id="XMLID_369_" class="st85" d="M499.3,834.2c0.2-0.4,0.4-1.1,0.4-1.6v-36.2c0-3.4-3.6-6.3-7.8-6.3l0,0
						c-4.2,0-7.8,2.7-7.8,6.3v40.9c0,0.9,0.7,1.6,1.3,1.8C488.3,840.1,495.5,841.4,499.3,834.2z"/>
				</g>
				<path id="XMLID_367_" class="st88" d="M445.2,800.5c0.2,0.2,0.4,0.2,0.7,0.2c3.4,0.2,15.9-2.5,28.2-16.3c1.1-1.1,1.8-2.7,1.8-4
					v-39.6c0-2.9-1.1-5.1-2.7-6l-9.4-5.4c-1.8-1.1-4-0.9-6.7,0.7l-12.7,7.4c-5.1,2.9-9.4,10.3-9.4,16.1v39.8c0,0.9,0.2,1.6,0.9,2
					L445.2,800.5z"/>
				<g id="XMLID_313_">
					<g id="XMLID_314_">
						<path id="XMLID_366_" class="st35" d="M466.2,852.1c-0.2,2.2,5.1,3.6,9.6,6.3c6.3,3.6,13,5.6,16.3,3.8
							c0.9-0.4,1.1-1.1,1.1-1.8v-3.6c0.2-2-2.9-5.4-7.6-9.8c-5.1-5.1-8.5-8.3-16.3-3.8c-2.2,1.3-3.1,2.2-3.1,3.1L466.2,852.1z"/>
						<path id="XMLID_365_" class="st87" d="M485.7,846.8c6.3,6,9.6,9.6,6.5,11.6c-3.1,1.8-9.6-0.9-16.3-6
							c-5.8-4.5-14.3-4.9-6.5-9.4C477.2,838.7,480.5,841.8,485.7,846.8z"/>
					</g>
					<path id="XMLID_363_" class="st85" d="M480.7,842.5c0.2-0.4,0.4-1.1,0.4-1.6v-36.4c0-3.4-3.6-6.3-7.8-6.3l0,0
						c-4.2,0-7.8,2.7-7.8,6.3v40.9c0,0.9,0.7,1.6,1.3,1.8C469.8,848.3,476.9,849.7,480.7,842.5z"/>
				</g>
				<path id="XMLID_361_" class="st37" d="M446.5,739.5c0,0.9,0.7,2,2,2.7c2.5,1.6,6.7,1.6,9.4,0c1.3-0.7,2-1.8,2-2.7v-8.7
					c0-0.9-0.7-2-2-2.7c-2.5-1.6-6.7-1.6-9.4,0c-1.3,0.7-2,1.8-2,2.7V739.5z"/>
				<circle id="XMLID_360_" class="st82" cx="453.3" cy="717.2" r="18.1"/>
				<path id="XMLID_359_" class="st89" d="M443.4,731.2c1.1-1.1,2.9-3.4,3.8-6c0-0.2,0-0.2,0-0.4V716c0-1.8,0.4-3.4,1.3-4.9
					c0.7-1.3,2-2.2,3.6-2.2c0,0,14.5,6.3,19.9-5.6c0.4-0.9,0-2-1.1-2.2c-1.1-0.2-2.5-1.1-4-3.6c-0.4-0.7-1.1-0.9-1.8-0.7
					c-1.3,0.4-4,0.4-6.5-2.5c-0.2-0.4-0.7-0.4-1.1-0.4c-2.7,0-12.3,0.4-17.4,4.2l0,0c-1.1,0.9-19,16.3,1.3,33.1
					C441.9,731.9,442.7,731.9,443.4,731.2z"/>
				<path id="XMLID_358_" class="st82" d="M447,727.2c0,2.2-1.6,3.1-3.4,2c-1.8-1.1-3.4-3.8-3.4-5.8c0-2.2,1.6-3.1,3.4-2
					C445.7,722.5,447,725.2,447,727.2z"/>
			</g>
			<g id="XMLID_315_">
				<polygon id="XMLID_356_" class="st90" points="498.4,789.1 466.2,807.7 441.4,794.2 474.5,775.3 				"/>
				<polygon id="XMLID_355_" class="st91" points="498.4,789.1 503.5,756.7 467.8,777.5 466.2,807.7 				"/>
			</g>
		</g>
		<g id="XMLID_316_">
			<path id="XMLID_352_" class="st82" d="M470.2,794.7L470.2,794.7c-2.2,1.6-5.6,1.1-7.2-1.1l-23.2-32.8c-1.6-2.2-1.1-5.6,1.1-7.2
				l0,0c2.2-1.6,5.6-1.1,7.2,1.1l23.2,32.8C473.1,789.8,472.5,793.1,470.2,794.7z"/>
			<path id="XMLID_351_" class="st1" d="M453,759.6l-6.5-11.2c-2.2-3.8-7.2-5.1-10.9-2.9l0,0c-3.8,2.2-5.1,7.2-2.9,10.9l6.5,11.2
				C439.4,767.7,447.9,771.2,453,759.6z"/>
		</g>
	</g>
	<g id="XMLID_317_">
		<g id="XMLID_318_">
			<path id="XMLID_348_" class="st34" d="M931,681.2L931,681.2c2.9,0.4,5.8-1.6,6.3-4.5l4-22.1c0.4-2.9-1.6-5.8-4.5-6.3l0,0
				c-2.9-0.4-5.8,1.6-6.3,4.5l-4,22.1C926.1,677.8,928.1,680.5,931,681.2z"/>
			<path id="XMLID_347_" class="st92" d="M926.5,658.6l2.5-13.4c0.9-4.5,5.1-7.6,9.8-6.7l0,0c4.5,0.9,7.6,5.1,6.7,9.8l-2.5,13.4
				C943.1,661.5,935.9,668.2,926.5,658.6z"/>
			<path id="XMLID_346_" class="st34" d="M906.7,683L906.7,683c0.9,2.9,4,4.5,6.9,3.6l18.8-5.6c2.9-0.2,5.4-2.9,5.1-5.8l0,0
				c-0.2-2.9-2.9-5.4-5.8-5.1l-21.5,6C907.3,677.2,905.8,680.3,906.7,683z"/>
		</g>
		<g id="XMLID_319_">
			<g id="XMLID_320_">
				<path id="XMLID_344_" class="st35" d="M965.2,769.4c0.2,2.5-5.4,3.8-10.3,6.7c-6.7,3.8-13.9,5.8-17.2,4
					c-0.9-0.4-1.3-1.1-1.3-1.8v-3.8c-0.2-2.2,3.1-5.6,8-10.5c5.6-5.4,8.9-8.7,17.2-4c2.2,1.3,3.4,2.5,3.4,3.1L965.2,769.4z"/>
				<path id="XMLID_343_" class="st87" d="M944.6,763.9c-6.7,6.5-10.3,10.3-6.9,12.3c3.4,2,10.3-0.9,17.2-6.3c6-4.7,15-5.1,6.9-9.8
					C953.6,755.1,950.2,758.5,944.6,763.9z"/>
			</g>
			<path id="XMLID_341_" class="st93" d="M950,759.2c-0.2-0.4-0.4-1.1-0.4-1.6v-57c0-3.6,3.8-6.5,8.3-6.5l0,0c4.5,0,8.3,2.9,8.3,6.5
				v61.9c0,0.9-0.7,1.8-1.6,2C961.4,765.4,954,766.8,950,759.2z"/>
		</g>
		<g id="XMLID_321_">
			<g id="XMLID_322_">
				<path id="XMLID_339_" class="st35" d="M947.3,756.5c0.2,2.5-5.4,3.8-10.3,6.7c-6.7,3.8-13.9,5.8-17.2,4
					c-0.9-0.4-1.3-1.1-1.3-1.8v-3.8c-0.2-2.2,3.1-5.6,8-10.5c5.6-5.4,8.9-8.7,17.2-4c2.2,1.3,3.4,2.5,3.4,3.1L947.3,756.5z"/>
				<path id="XMLID_338_" class="st87" d="M926.8,750.7c-6.7,6.5-10.3,10.3-6.9,12.3c3.4,2,10.3-0.9,17.2-6.3c6-4.7,15-5.1,6.9-9.8
					C935.9,742,932.4,745.3,926.8,750.7z"/>
			</g>
			<path id="XMLID_336_" class="st94" d="M932.1,746c-0.2-0.4-0.4-1.1-0.4-1.6v-57c0-3.6,3.8-6.5,8.3-6.5l0,0c4.5,0,8.3,2.9,8.3,6.5
				v61.9c0,0.9-0.7,1.8-1.6,2C943.5,752.2,936.2,753.8,932.1,746z"/>
		</g>
		<path id="XMLID_334_" class="st95" d="M963.4,710.9c-0.2,0.2-0.4,0.2-0.7,0.2c-3.6,0.2-16.8-2.7-29.9-17.4
			c-1.1-1.1-1.8-2.9-1.8-4.2v-42c0-3.1,1.1-5.4,2.9-6.5l9.8-5.8c1.8-1.1,4.2-0.9,6.9,0.7l13.4,7.8c5.4,3.1,9.8,10.7,9.8,17.2v42.2
			c0,0.9-0.4,1.8-0.9,2L963.4,710.9z"/>
		<path id="XMLID_333_" class="st96" d="M959.6,646.3c0,1.1-0.7,2-2,2.9c-2.7,1.6-7.2,1.6-9.8,0c-1.3-0.9-2-1.8-2-2.9v-9.2
			c0-1.1,0.7-2,2-2.9c2.7-1.6,7.2-1.6,9.8,0c1.3,0.9,2,1.8,2,2.9V646.3z"/>
		<circle id="XMLID_332_" class="st82" cx="952.7" cy="622.6" r="19.2"/>
		<path id="XMLID_331_" class="st11" d="M968.6,600.1c16.3,5.6,8.3,29.5-3.6,38.2c-5.8-3.1,1.3-8.9-6.7-4.9c-1.6-7.6,2-5.4-0.2-15
			c-8.3,4.2-24.6-0.9-27-8.9c2.9-1.3,6-9.6,12.7-12.5C952.5,592.9,963.6,594.7,968.6,600.1z"/>
		<path id="XMLID_330_" class="st82" d="M958.9,633.4c0,2.2,1.6,3.1,3.6,2c2-1.1,3.6-4,3.6-6.3s-1.6-3.1-3.6-2
			C960.5,628.4,958.9,631.1,958.9,633.4z"/>
		<polygon id="XMLID_329_" class="st90" points="966.1,683 936.2,700.4 906.2,683 906.2,669.8 936.2,652.6 966.1,669.8 		"/>
		<polygon id="XMLID_328_" class="st91" points="936.2,652.6 966.1,669.8 936.2,686.8 906.2,669.8 		"/>
		<g id="XMLID_323_">
			<path id="XMLID_327_" class="st34" d="M965.2,694.4L965.2,694.4c2.9,0.4,5.8-1.6,6.3-4.7l3.1-22.3c0.4-2.9-1.6-5.8-4.7-6.3l0,0
				c-2.9-0.4-5.8,1.6-6.3,4.7l-3.1,22.3C960.1,691.2,962.3,693.9,965.2,694.4z"/>
			<path id="XMLID_326_" class="st92" d="M959.8,672.2l2-13.6c0.7-4.7,4.9-7.8,9.6-7.2l0,0c4.7,0.7,7.8,4.9,7.2,9.6l-2,13.6
				C976.6,674.5,969.7,681.4,959.8,672.2z"/>
			<path id="XMLID_325_" class="st34" d="M935,699.5L935,699.5c0.9,2.9,4,4.2,6.9,3.4l24.6-8.5c2.9-0.2,5.1-2.9,4.9-6l0,0
				c-0.2-2.9-2.9-5.1-6-4.9l-27,8.9C935.5,693.5,933.9,696.6,935,699.5z"/>
		</g>
	</g>
</g>
<g id="DESIGNED_BY_FREEPIK">
</g>
</svg>
